<?xml version="1.0" standalone="no"?>
<!DOCTYPE svg PUBLIC "-//W3C//DTD SVG 20010904//EN"
 "http://www.w3.org/TR/2001/REC-SVG-20010904/DTD/svg10.dtd">
<svg version="1.0" xmlns="http://www.w3.org/2000/svg"
 width="450.000000pt" height="360.000000pt" viewBox="105 -90 450.000000 360.000000"
 preserveAspectRatio="xMidYMid meet">

<g transform="translate(0.000000,360.000000) scale(0.1520000,-0.1520000)"
 stroke="none">
<path d="M1507 2424 c-189 -17 -250 -28 -284 -53 -16 -11 -108 -40 -208 -65
-203 -50 -496 -133 -504 -142 -11 -12 283 7 359 23 41 8 157 41 257 74 101 32
220 65 265 73 296 54 754 57 966 6 97 -23 194 -62 383 -154 75 -36 142 -66
150 -66 7 0 22 -8 33 -18 12 -10 64 -44 116 -74 156 -92 155 -87 4 -88 -104 0
-134 -3 -144 -15 -16 -19 -59 -19 -86 0 -16 10 -79 17 -240 25 -250 12 -836
56 -933 70 -36 5 -67 7 -69 5 -4 -4 52 -86 198 -290 82 -114 124 -179 81 -125
-18 22 -263 357 -296 404 -10 13 -46 24 -137 41 -68 13 -131 27 -141 31 -40
15 -49 98 -16 158 l20 39 -26 -7 c-15 -4 -88 -33 -163 -65 l-137 -58 -230 -6
c-203 -6 -308 -14 -395 -32 -20 -4 -22 -3 -9 5 10 5 52 16 95 23 l78 13 -50
28 c-89 50 -140 66 -216 66 l-71 0 52 -54 c54 -58 63 -89 31 -106 -23 -12 -40
-68 -40 -132 0 -39 -5 -50 -31 -72 l-31 -27 12 -80 c6 -45 14 -87 17 -95 4
-12 252 -182 311 -213 22 -12 22 -11 23 51 1 35 5 77 9 93 6 24 8 19 9 -30 1
-33 7 -78 13 -100 12 -40 12 -40 18 46 11 150 86 266 210 327 47 23 67 27 145
27 82 0 97 -3 156 -32 82 -40 140 -102 182 -191 28 -59 31 -77 30 -152 0 -52
-7 -102 -17 -129 -9 -24 -16 -47 -16 -52 0 -5 412 -9 945 -9 520 0 945 3 945
8 0 4 -6 27 -14 52 l-13 45 -869 5 c-478 3 -870 6 -871 8 -12 15 -73 121 -73
126 0 3 407 6 905 6 l905 0 1 -27 c0 -16 6 -2 14 32 28 129 95 219 203 272 49
24 69 28 143 28 81 0 91 -2 165 -40 140 -71 207 -184 208 -351 l1 -90 227 0
c126 1 228 2 228 4 0 1 -12 7 -26 12 l-25 10 19 28 c32 44 92 170 92 191 0 22
-111 123 -194 176 -145 92 -320 158 -532 199 -160 30 -383 59 -421 53 -25 -4
-24 -4 7 -6 91 -3 517 -87 506 -99 -2 -2 -46 6 -98 17 -124 27 -199 38 -359
55 l-134 14 -210 105 c-200 100 -439 202 -534 227 -24 6 -54 18 -65 25 -54 34
-522 45 -809 19z m-1228 -414 c42 -12 51 -24 51 -71 l0 -36 -52 10 c-29 5 -57
13 -62 17 -12 11 3 90 17 90 7 0 28 -4 46 -10z m781 -88 c46 -18 166 -102 146
-102 -4 0 -24 13 -44 30 -115 92 -287 110 -428 46 -30 -14 -54 -23 -54 -21 0
7 82 47 125 62 57 18 187 11 255 -15z m2540 -21 c21 -9 18 -10 -20 -4 -25 3
-85 6 -135 6 -62 0 -81 3 -60 8 40 10 184 4 215 -10z m-3293 -92 c62 -18 111
-35 109 -37 -6 -5 -227 57 -245 69 -21 14 -4 10 136 -32z m3833 -24 c50 -17
140 -79 140 -96 0 -8 -11 -9 -32 -5 -37 7 -278 117 -278 127 0 9 120 -9 170
-26z m-3587 -61 c-3 -9 -9 -12 -12 -7 -3 4 -10 11 -15 16 -5 4 0 7 12 7 15 0
20 -4 15 -16z m3716 -80 c7 -6 -156 -2 -259 6 -67 6 -44 6 80 3 96 -3 177 -7
179 -9z m64 -11 c-7 -2 -19 -2 -25 0 -7 3 -2 5 12 5 14 0 19 -2 13 -5z m-178
-133 l0 -65 -43 -3 c-47 -4 -56 7 -56 68 0 61 9 72 56 68 l43 -3 0 -65z"/>
<path d="M4072 1503 l3 -58 35 0 35 0 3 58 3 57 -41 0 -41 0 3 -57z"/>
<path d="M1615 2339 c-49 -5 -128 -15 -174 -23 -98 -17 -132 -42 -151 -112
-11 -37 -10 -47 3 -67 14 -22 32 -27 154 -46 300 -46 1349 -123 1391 -101 19
9 -165 27 -488 46 -151 9 -336 21 -410 28 l-135 11 -58 119 c-45 93 -55 121
-45 128 7 5 134 7 283 5 348 -6 386 -15 709 -167 60 -28 114 -49 120 -47 16 6
-241 129 -349 167 -154 54 -206 61 -495 65 -146 2 -305 -1 -355 -6z m75 -134
c29 -64 51 -118 48 -121 -3 -3 -43 0 -89 6 -46 5 -89 10 -95 10 -6 0 -20 37
-32 83 -33 127 -34 121 18 128 101 14 91 21 150 -106z"/>
<path d="M2803 2075 c-19 -19 -33 -40 -31 -47 6 -18 58 -21 107 -8 31 8 41 16
41 31 0 68 -61 80 -117 24z"/>
<path d="M2936 2035 c-4 -14 -11 -25 -16 -25 -6 0 -10 -4 -10 -10 0 -6 29 -10
67 -10 74 0 74 5 2 49 l-37 21 -6 -25z"/>
<path d="M2862 1965 l-22 -35 23 0 c30 0 54 37 35 56 -11 11 -17 7 -36 -21z"/>
<path d="M859 1829 c-101 -16 -198 -91 -243 -188 -32 -71 -29 -198 7 -268 36
-69 88 -120 156 -152 75 -35 192 -36 262 -2 117 56 180 148 187 272 5 91 -11
150 -60 214 -73 95 -192 143 -309 124z m115 -110 c21 -6 58 -29 81 -51 104
-95 93 -251 -23 -332 -57 -40 -149 -48 -208 -18 -82 42 -124 107 -124 191 0
149 131 250 274 210z"/>
<path d="M820 1683 c-28 -16 -60 -42 -71 -60 l-20 -31 56 -12 c66 -14 82 -10
95 25 12 33 13 105 1 105 -5 0 -32 -12 -61 -27z"/>
<path d="M930 1678 c0 -18 4 -47 9 -64 8 -29 7 -30 -15 -26 -29 5 -70 -20 -79
-48 -10 -31 13 -77 44 -90 38 -15 75 1 91 41 12 28 11 36 -4 62 -9 17 -11 26
-4 20 14 -12 99 16 105 34 9 26 -56 77 -124 98 -21 6 -23 3 -23 -27z"/>
<path d="M1045 1532 c-62 -34 -67 -59 -26 -121 l29 -43 27 40 c26 40 48 152
29 152 -5 0 -31 -13 -59 -28z"/>
<path d="M720 1508 c0 -45 36 -130 55 -131 6 0 23 21 39 46 38 61 31 89 -25
106 -23 7 -47 15 -55 18 -11 4 -14 -5 -14 -39z"/>
<path d="M846 1390 c-21 -23 -37 -42 -35 -44 19 -16 56 -26 97 -26 46 0 112
16 112 27 0 3 -17 22 -37 44 -51 54 -85 53 -137 -1z"/>
<path d="M3359 1817 c-228 -85 -293 -364 -125 -533 155 -154 412 -114 514 80
24 45 27 62 27 146 0 80 -4 102 -24 140 -32 62 -86 117 -146 148 -61 31 -187
41 -246 19z m205 -121 c56 -30 94 -83 107 -146 16 -79 0 -132 -60 -191 -89
-89 -205 -92 -297 -7 -186 172 28 467 250 344z"/>
<path d="M3467 1704 c-2 -3 -1 -24 4 -47 14 -71 12 -77 -21 -77 -21 0 -36 -8
-51 -29 -21 -29 -22 -29 -61 -15 -68 24 -71 22 -66 -44 4 -54 35 -122 56 -122
4 0 20 22 35 50 28 50 28 50 53 33 l25 -16 -43 -44 c-41 -42 -42 -45 -24 -59
41 -30 130 -30 171 0 17 12 16 16 -22 57 l-41 44 23 17 c23 18 23 17 55 -39
31 -54 33 -56 47 -37 29 36 53 99 53 137 0 42 -7 44 -70 22 -54 -19 -53 -19
-66 9 -11 24 -10 25 40 31 79 11 82 16 39 64 -26 29 -53 46 -85 56 -25 7 -48
11 -51 9z"/>
<path d="M3364 1681 c-17 -10 -43 -34 -57 -52 -30 -39 -27 -42 55 -52 56 -7
64 1 74 71 6 50 6 52 -17 52 -13 0 -38 -9 -55 -19z"/>
<path d="M275 1559 c16 -50 55 -118 72 -123 36 -10 205 -37 210 -33 4 4 -251
163 -280 176 -5 2 -6 -7 -2 -20z"/>
<path d="M2215 1519 c363 -9 877 -8 800 1 -33 4 -287 7 -565 7 -450 -1 -475
-1 -235 -8z"/>
<path d="M3818 1356 c-4 -19 0 -26 16 -30 12 -3 118 -6 237 -6 204 0 218 1
243 21 14 11 24 25 21 30 -4 5 -116 9 -259 9 l-254 0 -4 -24z"/>
</g>
</svg>
