<?xml version="1.0" standalone="no"?>
<!DOCTYPE svg PUBLIC "-//W3C//DTD SVG 20010904//EN"
 "http://www.w3.org/TR/2001/REC-SVG-20010904/DTD/svg10.dtd">
<svg version="1.0" xmlns="http://www.w3.org/2000/svg"
 width="927.000000pt" height="562.000000pt" viewBox="250 -200 927.000000 562.000000"
 preserveAspectRatio="xMidYMid meet">

<g transform="translate(0.000000,562.000000) scale(0.140000,-0.140000)"
 stroke="none">
<path d="M3705 4643 c-235 -9 -519 -26 -574 -34 -75 -12 -146 -43 -217 -97
-51 -38 -55 -39 -159 -46 -105 -7 -330 -30 -392 -41 -40 -7 -43 -32 -8 -65 32
-30 57 -98 53 -140 -3 -31 -11 -38 -86 -81 -92 -53 -148 -92 -273 -191 l-87
-68 -127 0 -127 0 6 -24 c3 -13 11 -57 17 -99 10 -68 9 -81 -9 -134 -12 -35
-26 -113 -32 -189 -20 -220 -18 -214 -75 -252 l-50 -34 -6 -101 c-3 -56 -11
-135 -19 -175 -17 -87 -10 -105 68 -167 32 -26 49 -46 46 -56 -14 -53 38 -75
149 -64 154 16 191 13 241 -23 24 -17 70 -39 102 -47 69 -18 169 -20 159 -4
-16 24 -6 215 14 294 63 246 217 410 456 485 97 31 303 39 395 16 107 -27 186
-72 265 -150 146 -144 242 -373 278 -664 l12 -97 110 1 c83 1 133 7 200 25
l90 24 1345 5 1345 5 3 30 c1 17 9 66 18 110 72 376 244 619 497 701 71 23 99
27 202 27 100 -1 135 -5 208 -27 107 -32 144 -50 224 -111 176 -131 284 -394
287 -696 l1 -85 110 69 c210 134 258 177 280 254 16 56 66 121 115 150 32 19
60 71 60 113 0 23 -5 31 -25 36 -13 3 -42 26 -65 50 l-40 44 0 130 0 130 -57
45 c-74 59 -248 144 -384 188 -359 118 -900 192 -1588 217 l-293 11 -202 147
c-110 81 -293 216 -406 300 -113 85 -227 165 -253 179 -237 120 -763 186
-1452 181 -154 -1 -311 -3 -350 -5z m960 -68 c243 -23 514 -75 605 -115 l25
-11 -25 6 c-304 66 -729 92 -1215 75 -256 -9 -580 -28 -760 -46 -56 -5 -62 -3
-94 24 l-34 28 94 12 c99 12 466 40 609 46 172 7 640 -4 795 -19z m105 -106
c351 -20 526 -71 833 -243 229 -129 597 -385 597 -417 0 -5 -12 -9 -27 -9 -19
0 -56 23 -118 71 -285 225 -590 408 -800 478 -143 47 -273 62 -608 68 -285 5
-580 -5 -813 -28 -110 -10 -308 -68 -589 -171 -352 -130 -525 -229 -525 -299
0 -15 5 -31 10 -34 24 -15 6 -21 -39 -14 -118 18 -120 59 -6 136 70 48 604
301 735 348 251 91 858 143 1350 114z m-1853 -65 c-3 -3 -12 -4 -19 -1 -8 3
-5 6 6 6 11 1 17 -2 13 -5z m-222 -34 c-233 -35 -245 -36 -245 -11 0 17 13 20
143 28 78 6 176 10 217 11 64 0 48 -4 -115 -28z m1749 -242 c10 -112 20 -224
23 -250 l6 -48 168 0 c129 0 169 3 169 13 0 7 -23 95 -51 197 -60 221 -61 236
-25 267 33 28 85 30 231 8 251 -38 515 -135 688 -252 l37 -26 -29 -18 c-54
-33 -64 -59 -59 -154 l4 -84 -335 -3 c-185 -2 -398 -2 -473 -2 -158 2 -146 13
-123 -110 35 -193 36 -527 2 -726 l-13 -75 -7 160 c-4 88 -7 230 -7 315 0 85
-3 218 -7 296 l-6 141 -411 6 c-409 7 -583 14 -1056 42 -100 6 -334 27 -338
30 -1 1 171 0 383 -3 l385 -5 0 29 c-1 16 -7 81 -14 144 -16 134 -13 144 62
191 125 79 313 115 613 118 l166 1 17 -202z m-1748 114 c-20 -39 -73 -85 -234
-204 -175 -128 -171 -126 -147 -100 31 33 379 331 388 331 4 1 1 -12 -7 -27z
m3169 -280 c53 -37 71 -74 55 -112 -7 -16 -18 -35 -26 -41 -12 -9 -14 -4 -14
31 0 52 -28 101 -76 130 -18 12 -34 24 -34 27 0 12 58 -10 95 -35z m-2745
-147 c0 -3 -7 -16 -15 -28 -10 -16 -16 -66 -21 -168 l-6 -145 59 -13 c32 -7
93 -27 136 -43 222 -85 428 -305 515 -550 l27 -78 1443 0 c1146 0 1443 3 1446
13 1 6 18 58 36 115 82 253 264 441 505 521 358 118 760 20 951 -232 61 -81
126 -218 158 -336 14 -52 30 -99 35 -104 5 -5 43 -17 83 -27 l73 -17 -42 -12
c-23 -6 -72 -13 -108 -14 l-66 -2 -29 110 c-84 327 -277 543 -537 601 -111 25
-306 15 -428 -21 -224 -66 -378 -195 -476 -400 -40 -81 -79 -215 -79 -267 l0
-28 -82 0 c-46 0 -677 7 -1403 15 -726 8 -1370 15 -1430 15 l-111 0 -22 78
c-52 176 -169 367 -286 464 -204 170 -514 205 -772 88 -188 -85 -348 -252
-453 -475 -31 -64 -44 -83 -58 -81 -10 2 -99 7 -198 10 -268 10 -283 12 -306
50 -29 47 -59 152 -59 207 l0 49 63 -8 c79 -9 183 -9 270 1 61 7 67 6 67 -11
0 -44 120 -232 149 -232 4 0 21 35 39 78 106 258 325 441 620 517 52 14 125
28 162 31 l67 7 7 136 c6 129 8 137 33 163 25 26 43 35 43 23z m3258 -138 c52
-57 88 -128 108 -214 23 -96 14 -277 -20 -399 -22 -80 -64 -194 -51 -139 20
86 35 234 36 342 0 193 -34 320 -115 426 -45 58 -18 48 42 -16z m-4018 39 c0
-46 -114 -114 -265 -157 -110 -31 -262 -33 -295 -4 -29 26 -22 70 21 130 l32
45 254 0 c207 0 253 -2 253 -14z m1266 -58 c4 -6 -1 -17 -11 -25 -22 -15 -370
-19 -394 -4 -8 5 -11 16 -8 25 6 14 32 16 206 16 140 0 202 -3 207 -12z m1539
-43 c0 -19 -8 -20 -199 -23 -117 -1 -204 2 -209 7 -5 5 -7 17 -4 26 6 13 32
15 209 13 195 -3 203 -4 203 -23z m2799 -41 c226 -27 407 -74 539 -140 89 -45
117 -73 117 -116 -1 -65 -14 -71 -152 -66 -142 4 -145 5 -281 109 -105 79
-206 134 -351 191 l-101 39 94 -6 c51 -3 112 -8 135 -11z m-1095 -315 c-87
-90 -161 -238 -194 -391 -5 -26 -8 -28 -60 -28 -30 0 -55 4 -55 10 0 24 72
206 103 262 67 120 157 198 229 198 26 0 25 -1 -23 -51z"/>
<path d="M2870 3225 c-106 -24 -205 -80 -291 -165 -129 -127 -187 -282 -176
-464 10 -158 63 -275 176 -386 135 -134 271 -186 461 -177 129 7 204 31 307
99 169 113 263 289 265 496 4 265 -150 485 -402 577 -94 34 -240 43 -340 20z
m271 -126 c183 -52 318 -222 336 -419 19 -221 -148 -449 -368 -499 -180 -42
-379 30 -491 176 -182 241 -98 589 174 718 117 56 216 63 349 24z"/>
<path d="M2865 3063 c-76 -27 -136 -66 -187 -121 -208 -223 -125 -591 159
-703 47 -19 78 -23 163 -23 101 -1 108 0 182 36 96 45 163 111 206 198 110
223 20 483 -203 590 -63 31 -80 34 -170 37 -77 3 -112 -1 -150 -14z m185 -43
c69 -20 69 -18 10 -144 -29 -64 -56 -116 -61 -116 -12 0 -139 224 -131 232 8
8 108 36 132 37 8 1 31 -4 50 -9z m260 -147 c41 -46 69 -108 70 -150 l0 -33
-77 0 c-43 0 -102 -3 -130 -6 -38 -5 -53 -3 -53 5 0 7 19 42 43 79 24 37 54
84 66 105 12 20 29 37 36 37 7 0 27 -17 45 -37z m-492 -83 c44 -52 79 -96 78
-97 -1 -2 -248 -33 -260 -33 -12 0 -5 88 10 133 15 43 66 102 84 95 4 -2 44
-46 88 -98z m230 -102 c20 -20 15 -76 -7 -88 -41 -22 -91 2 -91 43 0 45 67 76
98 45z m-138 -112 c0 -8 -122 -200 -136 -216 -36 -38 -157 150 -126 197 4 6
34 14 67 16 102 6 195 7 195 3z m444 -15 c3 -4 -2 -34 -11 -66 -12 -42 -29
-71 -58 -102 -23 -24 -46 -43 -52 -43 -10 0 -143 198 -143 213 0 10 258 8 264
-2z m-295 -155 c34 -60 61 -112 61 -116 0 -17 -69 -35 -130 -35 -46 0 -74 5
-93 18 l-27 17 36 73 c45 89 85 159 90 155 1 -2 30 -52 63 -112z"/>
<path d="M7382 3220 c-109 -29 -187 -74 -272 -160 -132 -131 -186 -268 -178
-455 10 -220 125 -404 316 -503 97 -51 181 -72 288 -72 205 0 391 97 503 265
122 183 136 412 38 615 -40 84 -167 212 -254 258 -133 70 -298 89 -441 52z
m278 -117 c82 -22 128 -50 197 -116 198 -190 200 -484 6 -676 -101 -99 -202
-141 -339 -141 -414 -1 -630 501 -345 804 121 129 303 178 481 129z"/>
<path d="M7395 3062 c-120 -42 -214 -125 -268 -240 -30 -63 -32 -74 -32 -177
0 -103 2 -114 32 -178 82 -172 249 -268 442 -254 146 11 287 109 354 246 31
63 32 71 32 186 0 109 -2 125 -27 177 -37 80 -73 125 -141 175 -107 78 -274
106 -392 65z m186 -43 c66 -22 66 -25 5 -148 -31 -61 -58 -111 -61 -111 -11 0
-135 224 -128 231 9 9 108 37 134 38 9 1 31 -4 50 -10z m257 -146 c42 -45 71
-106 72 -150 l0 -33 -77 0 c-43 0 -102 -3 -130 -6 -40 -5 -53 -4 -53 6 0 19
130 220 142 220 6 0 26 -17 46 -37z m-490 -84 c46 -54 80 -99 75 -99 -4 0 -62
-7 -128 -15 -162 -20 -148 -24 -140 38 4 28 14 68 22 87 16 39 61 90 77 89 6
0 48 -45 94 -100z m223 -99 c39 -21 12 -100 -34 -100 -28 0 -57 28 -57 56 0
45 47 67 91 44z m-137 -122 c-35 -63 -138 -218 -144 -218 -20 0 -98 102 -110
144 -18 66 -12 74 62 79 156 8 199 7 192 -5z m446 -30 c0 -68 -87 -197 -124
-185 -6 2 -41 52 -78 110 l-67 107 134 0 135 0 0 -32z m-292 -133 c34 -63 62
-116 62 -119 0 -2 -23 -12 -51 -21 -60 -20 -135 -16 -173 9 l-26 16 57 115
c32 63 60 115 63 115 3 0 33 -52 68 -115z"/>
</g>
</svg>
