<?xml version="1.0" standalone="no"?>
<!DOCTYPE svg PUBLIC "-//W3C//DTD SVG 20010904//EN"
 "http://www.w3.org/TR/2001/REC-SVG-20010904/DTD/svg10.dtd">
<svg version="1.0" xmlns="http://www.w3.org/2000/svg"
 width="986.000000pt" height="624.000000pt" viewBox="200 -130 986.000000 624.000000"
 preserveAspectRatio="xMidYMid meet">

<g transform="translate(0.000000,624.000000) scale(0.142000,-0.142000)"
 stroke="none">
<path d="M2575 4512 c-27 -10 -75 -34 -106 -54 -54 -36 -60 -38 -205 -53 -279
-28 -564 -73 -564 -89 0 -7 20 -32 45 -56 68 -67 62 -80 -132 -283 -68 -71
-142 -154 -164 -185 -22 -32 -64 -90 -94 -130 -95 -128 -124 -254 -104 -458
l11 -111 -46 -74 c-58 -94 -70 -151 -70 -344 -1 -272 18 -294 349 -389 107
-30 381 -94 475 -111 l35 -6 1 133 c0 223 54 367 184 499 113 115 229 165 444
190 109 13 261 1 358 -27 142 -42 288 -154 357 -276 64 -114 111 -304 111
-455 l0 -63 1645 0 1645 0 0 68 c0 163 54 360 131 478 129 198 355 297 648
281 235 -12 404 -95 518 -255 104 -145 148 -312 148 -558 l0 -161 95 -7 c88
-5 204 3 241 18 8 4 23 33 33 66 13 41 31 72 62 105 53 57 120 157 167 250 99
198 102 365 9 453 -15 15 -38 56 -51 92 -48 135 -168 309 -253 368 -231 158
-729 267 -1423 311 l-140 9 -255 137 c-294 158 -791 405 -932 464 -161 68
-336 98 -747 130 -85 7 -129 15 -140 25 -28 25 -102 54 -183 70 -67 14 -203
16 -1065 16 -912 -1 -992 -2 -1038 -18z m2113 -46 c29 -11 50 -21 48 -23 -2
-3 -125 1 -273 8 -486 22 -1542 12 -1838 -17 -54 -5 -59 -4 -45 10 44 45 36
45 1075 43 936 -2 982 -3 1033 -21z m88 -131 c127 -8 266 -20 310 -26 315 -43
643 -172 938 -369 l135 -91 -19 -32 c-14 -22 -20 -50 -20 -89 0 -51 3 -59 31
-82 29 -25 64 -32 129 -27 37 3 63 39 57 79 -6 32 -4 31 84 -49 49 -45 89 -86
89 -91 0 -5 -36 -7 -82 -4 -46 3 -470 11 -943 17 -784 11 -917 15 -1510 49
-357 21 -630 38 -607 39 24 0 319 -12 655 -28 446 -22 771 -31 1197 -35 322
-3 734 -9 915 -12 l330 -5 -49 45 -50 45 -18 -30 c-23 -38 -61 -52 -120 -44
-100 14 -151 83 -128 175 6 25 16 51 23 58 6 8 7 16 1 20 -104 75 -280 184
-383 236 -378 192 -629 239 -1371 255 l-315 7 245 2 c135 1 349 -5 476 -13z
m-2792 -78 c7 -2 -185 -183 -383 -361 -19 -17 15 25 75 94 176 200 182 212
149 270 -8 14 -14 28 -15 31 0 5 129 -20 174 -34z m2572 -294 c17 -175 28
-321 25 -325 -7 -8 -1075 57 -1089 66 -15 9 -100 190 -112 238 -7 26 -10 62
-6 80 7 39 63 151 107 214 l30 44 507 0 508 0 30 -317z m596 271 c297 -48 607
-172 866 -346 l72 -49 -6 -57 c-6 -46 -14 -65 -41 -95 -19 -21 -39 -49 -45
-62 l-10 -23 -347 5 c-190 3 -436 8 -546 12 l-199 6 -48 305 c-26 168 -45 311
-42 319 4 11 27 13 129 7 69 -4 167 -14 217 -22z m786 -80 c407 -207 984 -519
965 -522 -10 -1 -67 6 -128 16 l-110 19 -485 283 c-267 156 -492 289 -500 296
-12 12 -10 14 19 14 21 0 101 -35 239 -106z m-2846 14 c-10 -18 -59 -107 -107
-196 -77 -145 -90 -163 -109 -158 -11 3 -66 6 -121 6 l-100 0 -63 58 -63 57
106 125 106 125 92 6 c51 3 134 6 185 7 l94 2 -20 -32z m-45 -494 c-3 -3 -12
-4 -19 -1 -8 3 -5 6 6 6 11 1 17 -2 13 -5z m50 0 c-3 -3 -12 -4 -19 -1 -8 3
-5 6 6 6 11 1 17 -2 13 -5z m171 -11 c-21 -2 -55 -2 -75 0 -21 2 -4 4 37 4 41
0 58 -2 38 -4z m-1332 -74 c12 -13 14 -21 5 -36 -5 -11 -102 -89 -215 -173
l-204 -153 -70 2 c-39 1 -83 6 -98 10 -23 6 -10 10 61 20 50 8 98 18 108 23
10 5 91 64 180 130 89 66 168 123 175 125 6 3 12 11 12 18 0 15 -106 25 -272
25 -69 0 -118 4 -118 10 0 11 119 17 297 16 99 -1 125 -4 139 -17z m1039 -19
c-22 -42 -18 -119 10 -244 14 -60 23 -111 21 -113 -4 -4 -61 193 -71 242 -6
34 7 86 30 121 22 34 29 30 10 -6z m-1280 -100 c-27 -28 -33 -30 -109 -30 -45
0 -125 3 -178 7 -94 6 -98 7 -98 30 l0 23 207 0 207 0 -29 -30z m3085 -145
c64 -251 63 -536 -3 -787 -10 -41 -12 -2 -12 270 0 286 -15 529 -40 672 -10
59 29 -51 55 -155z m1890 -73 c111 -333 96 -654 -44 -889 l-31 -53 -1531 0
-1532 0 -7 48 c-4 26 -23 90 -42 142 -92 249 -222 408 -405 495 -112 53 -197
68 -368 63 -124 -4 -156 -9 -223 -31 -144 -50 -267 -122 -389 -228 -66 -59
-67 -59 -130 -59 -34 0 -119 9 -188 20 -123 20 -465 99 -458 105 2 2 46 0 98
-5 122 -12 354 -12 404 -1 61 15 64 26 15 57 -74 45 -203 133 -229 154 l-25
20 46 -19 c96 -40 305 -88 482 -111 l87 -12 45 30 c90 59 384 132 535 132 131
0 326 -56 442 -126 78 -47 197 -160 253 -239 53 -74 115 -198 144 -287 l23
-68 1463 0 1464 0 21 58 c55 145 80 295 80 475 0 170 -16 288 -66 482 -14 57
32 -49 66 -153z m-3225 103 c0 -19 -8 -20 -169 -23 -93 -1 -173 1 -178 6 -5 5
-6 16 -2 26 6 15 24 16 178 14 163 -3 171 -4 171 -23z m-1930 -30 c-28 -23
-37 -25 -125 -22 -90 2 -95 3 -98 25 -3 22 -2 22 125 22 l128 0 -30 -25z
m6905 -25 c38 -5 -14 -8 -167 -7 -123 0 -226 -2 -229 -6 -21 -21 37 -65 243
-185 108 -62 131 -72 199 -81 94 -14 201 -38 223 -51 13 -8 11 -9 -9 -5 -95
21 -194 33 -245 30 l-60 -3 -205 132 c-218 140 -240 162 -183 185 31 12 337 6
433 -9z m-3152 -2 c7 -7 8 -17 1 -30 -9 -16 -25 -18 -189 -18 -164 0 -180 2
-189 18 -20 37 4 42 189 42 120 0 180 -4 188 -12z m3255 -40 c34 -17 182 -240
150 -227 -4 2 -30 16 -58 30 -27 15 -77 32 -110 39 -52 12 -68 21 -127 77
l-66 63 -80 0 c-97 0 -139 8 -146 27 -5 12 24 13 207 7 116 -4 220 -11 230
-16z m-303 -48 l58 0 51 -70 c34 -47 46 -70 35 -70 -16 0 -199 112 -224 138
-13 13 -13 14 3 8 10 -3 45 -6 77 -6z m586 -605 c-3 -13 -28 -68 -54 -122 -33
-68 -55 -101 -72 -109 -35 -16 -132 -26 -149 -15 -23 15 -15 58 29 143 60 119
73 128 172 128 l80 0 -6 -25z"/>
<path d="M8655 2573 c-23 -22 -35 -58 -35 -102 0 -46 15 -64 42 -50 39 21 64
129 36 157 -16 16 -23 15 -43 -5z"/>
<path d="M7360 2894 c-173 -37 -336 -162 -416 -319 -57 -111 -69 -162 -69
-290 0 -128 12 -179 69 -290 82 -161 244 -283 426 -321 233 -49 489 50 626
242 162 226 161 512 0 738 -140 196 -395 292 -636 240z m245 -119 c128 -33
246 -117 315 -225 90 -141 100 -333 24 -488 -32 -65 -118 -159 -183 -201 -286
-184 -677 -24 -756 310 -84 358 250 694 600 604z"/>
<path d="M7405 2754 c-11 -3 -41 -12 -68 -21 l-48 -15 39 -27 c47 -35 93 -119
127 -236 l26 -89 -23 -18 c-13 -10 -27 -18 -32 -18 -5 0 -46 25 -92 55 -92 62
-172 144 -181 187 -3 15 -9 28 -12 28 -21 0 -88 -121 -107 -195 -14 -50 -19
-185 -8 -185 3 0 17 9 31 20 44 34 129 53 245 54 59 0 109 -2 112 -4 2 -3 7
-17 11 -31 6 -23 0 -30 -57 -67 -99 -64 -175 -96 -245 -100 l-62 -4 21 -41
c42 -83 164 -183 257 -212 22 -7 23 -6 16 32 -9 54 17 158 65 259 36 78 41 84
68 84 25 0 32 -6 46 -40 50 -125 71 -283 45 -332 -11 -20 -9 -21 25 -15 90 14
214 96 273 179 l33 46 -40 0 c-50 1 -133 38 -214 96 -90 65 -110 89 -96 116
11 20 16 21 88 15 123 -11 208 -33 262 -70 l49 -33 7 55 c13 103 -10 211 -62
301 l-26 44 -28 -49 c-16 -27 -52 -67 -82 -90 -54 -42 -177 -113 -194 -113 -5
1 -20 10 -33 21 l-24 20 22 77 c33 111 75 194 121 236 22 20 40 38 40 40 0 24
-234 55 -295 40z"/>
<path d="M2602 2875 c-110 -24 -207 -79 -298 -170 -135 -134 -191 -282 -182
-474 27 -536 680 -785 1061 -404 168 168 227 424 147 649 -103 293 -418 466
-728 399z m240 -116 c89 -19 174 -64 238 -125 113 -107 162 -219 163 -364 1
-142 -46 -255 -148 -357 -181 -180 -456 -199 -658 -44 -113 87 -185 222 -194
366 -10 148 40 278 147 385 123 123 288 173 452 139z"/>
<path d="M2620 2726 c-25 -6 -53 -16 -63 -22 -16 -9 -16 -11 8 -24 53 -28 104
-121 144 -260 l21 -75 -23 -17 c-12 -10 -26 -18 -31 -18 -5 0 -46 25 -91 54
-91 61 -159 129 -181 182 -8 19 -16 34 -19 34 -2 0 -20 -24 -40 -52 -48 -72
-75 -163 -75 -255 l0 -74 28 19 c50 36 139 56 254 56 58 1 109 -1 111 -4 3 -3
8 -16 12 -30 5 -22 -1 -30 -59 -68 -100 -66 -173 -96 -243 -100 l-62 -4 21
-41 c40 -79 168 -185 255 -212 22 -6 23 -4 17 37 -8 58 16 151 68 260 39 83
43 87 67 81 33 -8 34 -10 66 -108 31 -93 43 -208 27 -255 l-12 -32 37 7 c83
15 195 87 257 165 20 25 36 48 36 53 0 4 -17 7 -37 7 -47 0 -127 37 -207 94
-91 65 -110 89 -96 116 11 21 16 22 89 16 120 -11 207 -34 261 -71 l49 -33 6
64 c9 84 -9 184 -47 262 -17 34 -35 65 -39 68 -5 3 -15 -10 -22 -28 -21 -50
-116 -130 -210 -179 l-84 -42 -23 23 -23 23 22 76 c33 112 74 194 121 239 l41
41 -66 20 c-76 24 -193 27 -265 7z"/>
</g>
</svg>
