<?xml version="1.0" standalone="no"?>
<!DOCTYPE svg PUBLIC "-//W3C//DTD SVG 20010904//EN"
 "http://www.w3.org/TR/2001/REC-SVG-20010904/DTD/svg10.dtd">
<svg version="1.0" xmlns="http://www.w3.org/2000/svg"
 width="980.000000pt" height="497.000000pt" viewBox="100 -60 980.000000 497.000000"
 preserveAspectRatio="xMidYMid meet">

<g transform="translate(0.000000,497.000000) scale(0.120000,-0.120000)"
stroke="none">
<path d="M4700 3573 c-30 -1 -152 -7 -270 -13 -691 -33 -678 -31 -1065 -150
-202 -61 -262 -73 -835 -159 -194 -30 -389 -66 -485 -90 -363 -91 -388 -95
-785 -126 -107 -8 -211 -18 -230 -21 l-35 -6 40 -21 c22 -11 135 -62 250 -112
418 -183 545 -240 545 -246 0 -3 -48 -12 -108 -19 -59 -7 -156 -21 -217 -31
-96 -17 -141 -18 -347 -12 l-236 6 15 -64 c8 -35 17 -67 21 -71 4 -3 43 -18
87 -32 l80 -26 -83 4 c-45 2 -82 2 -82 0 0 -38 130 -236 284 -430 l62 -79 75
-19 c137 -33 389 -84 389 -77 0 3 -7 31 -15 61 -42 153 -26 338 41 479 107
228 326 378 578 397 284 22 546 -126 670 -378 101 -203 102 -412 4 -608 l-43
-85 1849 3 c1018 1 1852 5 1854 7 3 2 -7 32 -21 65 -83 191 -78 409 13 589 86
172 263 314 443 356 140 33 335 12 459 -51 113 -57 250 -175 281 -241 12 -27
15 -28 202 -68 l150 -31 -74 -7 c-41 -3 -109 -3 -151 0 l-77 6 18 -73 c37
-146 41 -351 9 -470 -18 -63 -18 -63 63 -56 39 3 231 17 426 31 257 19 364 31
390 42 54 24 28 26 -246 21 -134 -2 -241 -2 -238 0 2 2 93 17 202 33 110 16
217 32 239 37 l39 8 11 89 c6 50 14 122 18 161 l7 71 -173 46 c-135 37 -683
167 -700 167 -2 0 -31 32 -63 71 -119 142 -292 255 -460 300 -109 29 -271 29
-376 1 -95 -26 -197 -76 -282 -140 -35 -27 -69 -52 -75 -56 -6 -4 -52 20 -101
54 -50 33 -134 87 -187 119 l-96 60 39 10 c21 5 67 17 103 26 92 23 222 64
239 74 22 14 -172 102 -589 267 -290 114 -489 168 -760 206 -202 28 -957 10
-998 -24 -26 -22 -35 -61 -41 -168 l-6 -105 -95 -7 c-52 -4 -131 -12 -174 -18
l-79 -12 -23 29 c-12 15 -31 45 -40 66 -16 35 -16 40 -1 72 19 39 50 57 182
105 157 57 137 60 -165 24 -178 -21 -268 -41 -398 -85 -117 -41 -359 -142
-374 -157 -5 -5 64 -12 154 -15 164 -6 326 -20 668 -57 102 -11 361 -38 575
-60 487 -51 1377 -148 1428 -156 36 -6 37 -7 22 -24 -9 -10 -31 -42 -50 -71
-40 -64 -36 -69 56 -69 l66 0 54 73 54 72 56 0 56 0 124 -112 c69 -61 131
-118 138 -127 27 -32 54 -34 -524 34 -147 17 -383 44 -1480 170 -239 28 -486
50 -558 50 -96 0 -451 -96 -798 -216 l-159 -55 -88 88 c-91 92 -159 138 -262
179 -89 37 -206 64 -270 64 -99 0 -291 -55 -420 -121 l-55 -28 -150 56 c-82
31 -246 89 -364 129 -118 41 -216 75 -218 77 -2 2 75 7 170 11 95 3 304 18
463 32 627 56 949 44 1517 -57 93 -17 175 -29 183 -27 8 2 -108 32 -258 67
-323 77 -343 78 -865 82 -205 2 -370 5 -368 7 7 7 179 41 395 77 113 19 338
59 500 89 162 30 363 66 445 80 676 113 1587 157 1985 97 322 -49 699 -169
1306 -414 218 -89 276 -104 439 -117 77 -6 174 -16 215 -21 97 -13 302 -69
460 -126 137 -49 592 -234 588 -239 -2 -1 -66 15 -143 37 -152 42 -325 82
-332 76 -2 -2 18 -12 44 -22 71 -27 190 -87 293 -150 51 -31 126 -73 168 -94
77 -38 421 -156 430 -146 12 12 -166 162 -246 208 -147 83 -514 257 -905 428
-280 122 -325 134 -560 149 l-148 9 -387 155 c-875 350 -1156 419 -1680 414
-103 -1 -212 -3 -242 -5z m475 -223 c423 -32 724 -114 1300 -355 88 -37 171
-72 185 -77 22 -9 12 -14 -90 -44 -203 -61 -252 -72 -297 -65 l-41 6 33 56
c48 82 50 95 22 123 -43 43 -361 131 -378 105 -4 -7 -10 -43 -14 -81 -6 -54
-4 -73 9 -92 15 -23 19 -24 116 -21 55 1 100 0 100 -4 0 -4 -15 -21 -32 -38
l-33 -31 -75 39 c-206 105 -252 120 -485 159 -197 33 -311 40 -707 47 l-378 6
0 128 0 128 53 5 c150 17 521 20 712 6z m958 -332 c60 -17 118 -39 130 -49 22
-18 20 -18 -74 -19 -53 0 -117 3 -142 6 -44 6 -47 9 -61 52 -9 25 -16 47 -16
50 0 6 34 -3 163 -40z m-1858 -576 c83 -144 159 -273 170 -286 23 -29 -20 -23
710 -91 944 -88 926 -86 1185 -141 154 -33 225 -54 135 -40 -62 9 -1036 89
-1670 137 -159 11 -296 23 -303 25 -6 2 -37 43 -69 91 -31 48 -75 118 -99 154
-24 37 -71 118 -105 180 -33 63 -76 143 -95 177 -19 35 -29 62 -22 60 7 -2 81
-122 163 -266z m-452 55 c138 -207 198 -287 359 -478 78 -93 95 -108 127 -113
20 -3 214 -22 431 -42 217 -20 676 -62 1020 -95 l625 -58 -320 5 c-348 5 -909
19 -1376 33 -376 12 -354 5 -516 172 -66 68 -153 161 -193 205 -81 92 -400
513 -400 529 0 6 24 18 53 26 28 9 53 17 53 18 1 0 63 -90 137 -202z m747 173
l175 -18 -187 -1 c-104 0 -188 1 -188 3 0 2 -3 11 -6 20 -7 19 -18 19 206 -4z
m-3239 -440 c85 -106 120 -142 143 -148 28 -8 27 -9 -28 -21 -32 -7 -62 -9
-66 -4 -4 4 -59 76 -121 158 l-113 150 30 6 c16 3 32 4 36 2 4 -2 57 -66 119
-143z m7229 -181 c16 -74 30 -141 30 -150 0 -13 -14 -18 -66 -24 -36 -4 -68
-5 -70 -2 -5 4 69 317 74 312 1 -1 16 -62 32 -136z m-4862 -69 c92 -8 96 -10
225 -83 73 -41 168 -94 212 -118 l80 -44 -122 -3 -122 -3 -162 108 -163 108
-176 27 -175 27 155 -5 c85 -3 197 -9 248 -14z"/>
<path d="M1090 2845 c0 -29 -7 -69 -15 -88 -8 -20 -15 -40 -15 -45 0 -5 44
-30 98 -56 l98 -46 114 32 115 33 0 39 0 39 -165 64 c-90 35 -179 67 -197 72
l-33 9 0 -53z"/>
<path d="M2305 2640 c-168 -34 -317 -138 -414 -289 -108 -169 -119 -401 -28
-591 44 -90 178 -225 267 -268 297 -144 639 -61 816 199 67 98 94 179 101 300
11 191 -46 340 -181 474 -93 92 -169 136 -282 165 -80 21 -203 25 -279 10z
m242 -144 c81 -22 142 -56 210 -119 255 -238 170 -658 -158 -781 -130 -49
-258 -43 -383 17 -300 144 -365 522 -131 753 123 121 304 172 462 130z"/>
<path d="M2291 2420 c-110 -40 -186 -109 -236 -213 -152 -313 137 -650 480
-562 118 31 211 108 264 218 96 198 6 445 -196 540 -59 27 -81 32 -163 34 -76
3 -106 -1 -149 -17z"/>
<path d="M7180 2584 c-215 -46 -406 -234 -449 -442 -6 -29 -11 -89 -11 -132 0
-170 51 -293 169 -411 312 -311 823 -198 981 216 31 82 38 233 16 329 -25 105
-79 200 -160 281 -146 145 -345 203 -546 159z m223 -119 c191 -40 340 -200
369 -394 38 -253 -162 -501 -419 -518 -431 -30 -673 467 -378 776 65 68 150
117 238 136 81 18 108 18 190 0z"/>
<path d="M7224 2420 c-66 -13 -158 -65 -212 -119 -201 -201 -137 -539 126
-668 52 -26 66 -28 172 -28 108 0 119 2 182 32 187 88 279 298 218 495 -63
205 -274 330 -486 288z"/>
</g>
</svg>
