<?xml version="1.0" standalone="no"?>
<!DOCTYPE svg PUBLIC "-//W3C//DTD SVG 20010904//EN"
 "http://www.w3.org/TR/2001/REC-SVG-20010904/DTD/svg10.dtd">
<svg version="1.0" xmlns="http://www.w3.org/2000/svg"
 width="8.000000pt" height="4.000000pt" viewBox="100 -80 998.000000 559.000000"
 preserveAspectRatio="xMidYMid meet">

<g transform="translate(0.000000,559.000000) scale(0.122000,-0.122000)"
 stroke="none">
<path d="M3645 4339 c-302 -16 -684 -54 -1065 -105 -198 -26 -862 -134 -869
-140 -3 -3 13 -40 34 -84 24 -50 35 -83 30 -89 -6 -5 -57 -30 -114 -56 -330
-147 -562 -289 -602 -366 -26 -52 -25 -169 2 -347 28 -182 23 -258 -20 -315
-84 -110 -117 -230 -108 -395 6 -114 21 -176 69 -284 l30 -67 132 -42 c72 -23
177 -57 234 -75 l102 -32 0 102 c0 331 144 580 395 685 108 45 212 64 360 64
323 0 537 -119 656 -368 62 -127 81 -216 86 -397 l5 -158 1838 0 1837 0 6 108
c23 368 184 658 431 777 134 64 204 79 371 78 204 0 334 -41 463 -142 171
-136 266 -429 242 -746 -5 -55 -7 -101 -5 -103 1 -2 52 2 111 8 285 28 488 86
582 165 55 46 85 173 102 435 5 80 12 159 15 176 3 18 1 71 -5 120 -10 95 -47
186 -81 204 -10 6 -25 26 -33 44 -56 135 -321 283 -696 390 -346 99 -817 176
-1380 227 l-235 21 -165 88 c-246 131 -693 353 -816 405 -262 112 -635 187
-1069 215 -181 11 -646 11 -870 -1z m585 -49 c454 -22 896 -82 1121 -153 72
-23 73 -24 49 -37 -38 -21 -151 -15 -275 14 -186 44 -435 74 -800 96 -184 12
-888 16 -1005 6 -36 -3 -105 -8 -155 -11 -163 -11 -398 -35 -543 -56 -79 -11
-146 -19 -148 -16 -7 7 137 47 261 72 389 79 950 110 1495 85z m110 -120 c619
-46 1167 -203 1587 -454 154 -93 272 -180 373 -276 l75 -71 -60 44 c-572 419
-1229 647 -2045 708 -317 24 -845 3 -1195 -47 -228 -32 -663 -123 -742 -155
-43 -17 -26 -39 60 -78 78 -36 127 -77 127 -106 0 -7 -14 -40 -32 -74 -19 -37
-28 -65 -22 -70 5 -5 718 -53 1584 -105 1884 -115 1728 -103 1741 -128 6 -11
9 -21 7 -24 -3 -3 -469 25 -863 51 -342 23 -2020 124 -2320 140 -352 19 -385
22 -385 39 0 7 34 44 75 83 62 59 75 77 75 102 0 41 -55 96 -146 147 l-67 38
114 28 c172 42 533 114 719 142 158 25 499 62 625 69 147 8 592 6 715 -3z
m1697 -309 c548 -273 583 -294 537 -328 -55 -41 -248 36 -704 279 -129 69
-281 148 -337 176 l-102 51 37 39 c20 22 39 40 42 41 3 0 240 -116 527 -258z
m-1972 207 c7 -7 56 -540 50 -546 -6 -7 -1061 60 -1075 68 -9 6 -30 411 -21
422 7 9 362 45 566 58 126 8 472 7 480 -2z m590 -49 c390 -64 755 -171 1011
-295 l112 -54 -25 -62 c-15 -36 -26 -85 -27 -115 -1 -40 -5 -53 -16 -53 -32
-1 -1195 73 -1199 76 -5 4 -131 515 -131 532 0 15 10 14 275 -29z m-1701 -156
c4 -71 8 -156 9 -190 l3 -63 -199 0 c-155 0 -198 3 -194 13 3 6 35 84 72 172
36 88 69 163 73 167 8 8 125 25 188 27 l42 1 6 -127z m-1010 -21 l68 -70 -20
-20 c-11 -11 -65 -35 -119 -52 -146 -47 -749 -220 -764 -220 -19 1 42 53 131
112 109 73 428 224 592 281 16 6 16 9 2 43 l-15 36 28 -20 c15 -11 59 -52 97
-90z m4071 -404 c66 -12 68 -13 35 -19 -19 -5 -76 -11 -125 -15 l-91 -6 -12
26 c-8 17 -8 34 -2 50 l9 24 58 -23 c32 -13 90 -30 128 -37z m1220 -9 c77 -11
219 -35 315 -55 192 -38 674 -154 667 -160 -2 -2 -62 1 -133 7 -128 11 -1009
6 -1064 -6 -23 -5 -32 5 -102 109 -43 63 -78 117 -78 120 0 20 197 13 395 -15z
m-5959 -79 c118 -30 267 -50 379 -50 112 0 136 -7 108 -32 -33 -29 -144 -79
-263 -119 -213 -71 -333 -63 -384 24 -30 50 -51 160 -42 210 l7 35 58 -23 c33
-14 94 -33 137 -45z m3093 -76 c36 -80 78 -226 96 -329 25 -142 23 -383 -4
-535 -33 -187 -36 -181 -36 73 0 133 -6 294 -13 357 -14 124 -60 434 -68 463
-10 34 5 16 25 -29z m-1202 -10 c3 -9 2 -24 -4 -33 -8 -13 -35 -16 -164 -19
-169 -3 -194 0 -203 24 -15 39 9 44 191 44 151 0 174 -2 180 -16z m1823 -29
c6 -8 10 -22 8 -32 -3 -17 -18 -18 -183 -18 -165 0 -180 1 -183 18 -8 42 12
47 183 47 130 0 165 -3 175 -15z m1597 -215 c20 -97 23 -455 5 -545 -8 -41
-10 -19 -11 130 -1 171 -18 386 -41 519 -20 116 -20 121 5 51 14 -38 33 -108
42 -155z m1738 49 c130 -14 280 -46 355 -76 66 -26 150 -78 150 -92 0 -4 -31
-40 -69 -79 -65 -68 -71 -72 -102 -66 -109 20 -493 199 -604 281 -49 36 -49
37 -25 44 28 8 160 3 295 -12z m-760 -129 c338 -48 575 -212 700 -483 33 -71
66 -180 80 -261 l6 -38 250 7 c276 8 275 8 249 -55 -41 -98 -289 -203 -517
-217 l-93 -6 0 89 c-1 550 -229 851 -676 894 -330 31 -589 -78 -754 -316 -99
-143 -172 -356 -187 -541 l-6 -83 -1773 0 -1774 0 0 53 c0 28 -5 84 -10 122
-54 372 -249 619 -563 709 -246 71 -531 51 -712 -49 -208 -115 -315 -313 -352
-651 l-8 -71 -167 48 c-92 26 -172 50 -177 54 -23 14 -62 96 -81 168 -22 87
-39 307 -23 307 15 0 48 -41 62 -77 7 -17 21 -62 30 -100 l17 -68 135 -12
c186 -16 189 -16 196 5 57 166 121 271 222 364 127 117 265 178 450 200 122
14 291 1 411 -32 297 -83 545 -355 647 -712 l28 -98 38 0 c68 0 3090 -89 3224
-95 l132 -5 6 47 c46 344 159 596 335 742 100 83 221 139 348 161 68 11 226
11 307 0z m1344 -536 c3 -3 -8 -44 -24 -92 l-30 -87 -74 -3 c-100 -4 -104 -2
-85 45 27 66 74 131 102 142 25 10 100 6 111 -5z"/>
<path d="M8435 2951 c22 -24 66 -60 99 -82 48 -32 67 -39 108 -39 44 0 54 4
86 36 l36 36 -37 19 c-44 23 -178 56 -267 65 l-65 6 40 -41z"/>
<path d="M2105 2716 c-38 -8 -90 -21 -115 -30 -188 -69 -356 -243 -420 -436
-31 -93 -38 -262 -16 -364 45 -199 180 -373 358 -460 122 -60 189 -76 317 -76
124 0 208 18 306 67 141 70 237 162 304 292 68 133 76 168 76 331 0 132 -3
152 -27 218 -40 110 -84 178 -174 268 -88 89 -193 149 -309 179 -87 22 -218
27 -300 11z m268 -143 c258 -76 429 -338 389 -600 -41 -268 -271 -466 -542
-466 -261 0 -481 180 -535 438 -8 39 -15 86 -15 105 0 19 7 67 15 105 48 231
233 403 470 439 47 7 161 -4 218 -21z"/>
<path d="M2130 2540 c-207 -38 -369 -205 -402 -414 -42 -273 145 -525 422
-567 254 -39 506 136 559 389 51 243 -91 492 -326 573 -64 22 -188 32 -253 19z
m193 -80 c15 -7 27 -17 27 -22 0 -14 -124 -258 -131 -258 -4 0 -20 24 -37 53
-16 28 -51 87 -76 130 l-46 78 37 16 c77 32 162 33 226 3z m248 -147 c44 -48
68 -88 78 -132 17 -78 18 -77 -147 -84 -80 -4 -147 -5 -149 -3 -2 2 34 62 79
134 89 141 88 141 139 85z m-558 -97 l96 -114 -42 -6 c-124 -17 -249 -27 -262
-22 -18 6 -13 59 12 139 14 44 71 117 92 117 4 0 51 -51 104 -114z m242 -106
c51 -19 54 -90 4 -115 -34 -18 -71 -5 -88 31 -18 40 3 75 56 93 1 1 13 -3 28
-9z m-141 -152 c-49 -84 -158 -248 -164 -248 -15 0 -101 101 -116 135 -14 34
-19 106 -8 117 3 4 71 7 151 7 115 1 143 -1 137 -11z m515 -4 c9 -8 -31 -128
-56 -164 -23 -36 -89 -88 -97 -79 -9 10 -149 235 -153 247 -5 11 23 12 148 6
85 -4 156 -8 158 -10z m-326 -200 c31 -56 57 -106 57 -111 0 -16 -98 -43 -151
-43 -55 0 -116 21 -125 43 -3 8 25 72 62 141 l66 127 17 -28 c10 -15 43 -74
74 -129z"/>
<path d="M7305 2716 c-38 -8 -90 -21 -115 -30 -188 -69 -356 -243 -420 -436
-31 -93 -38 -262 -16 -364 45 -199 180 -373 358 -460 122 -60 189 -76 317 -76
124 0 208 18 306 67 141 70 237 162 304 292 68 133 76 168 76 331 0 132 -3
152 -27 218 -40 110 -84 178 -174 268 -88 89 -193 149 -309 179 -87 22 -218
27 -300 11z m268 -143 c258 -76 429 -338 389 -600 -41 -268 -271 -466 -542
-466 -261 0 -481 180 -535 438 -18 88 -18 122 0 210 48 231 233 403 470 439
47 7 161 -4 218 -21z"/>
<path d="M7330 2540 c-207 -38 -369 -205 -402 -414 -42 -273 145 -525 422
-567 254 -39 506 136 559 389 51 243 -91 492 -326 573 -64 22 -188 32 -253 19z
m193 -80 c15 -7 27 -17 27 -22 0 -14 -124 -258 -131 -258 -4 0 -20 24 -37 53
-16 28 -51 87 -76 130 l-46 78 37 16 c77 32 162 33 226 3z m248 -147 c44 -48
68 -88 78 -132 17 -78 18 -77 -147 -84 -80 -4 -147 -5 -149 -3 -2 2 34 62 79
134 89 141 88 141 139 85z m-558 -97 l96 -114 -42 -6 c-124 -17 -249 -27 -262
-22 -18 6 -13 59 12 139 14 44 71 117 92 117 4 0 51 -51 104 -114z m242 -106
c51 -19 54 -90 4 -115 -34 -18 -71 -5 -88 31 -18 40 3 75 56 93 1 1 13 -3 28
-9z m-141 -152 c-49 -84 -158 -248 -164 -248 -15 0 -101 101 -116 135 -14 34
-19 106 -8 117 3 4 71 7 151 7 115 1 143 -1 137 -11z m515 -4 c9 -8 -31 -128
-56 -164 -23 -36 -89 -88 -97 -79 -9 10 -149 235 -153 247 -5 11 23 12 148 6
85 -4 156 -8 158 -10z m-326 -200 c31 -56 57 -106 57 -111 0 -16 -98 -43 -151
-43 -55 0 -116 21 -125 43 -3 8 25 72 62 141 l66 127 17 -28 c10 -15 43 -74
74 -129z"/>
</g>
</svg>
