<?xml version="1.0" standalone="no"?>
<!DOCTYPE svg PUBLIC "-//W3C//DTD SVG 20010904//EN"
 "http://www.w3.org/TR/2001/REC-SVG-20010904/DTD/svg10.dtd">
<svg version="1.0" xmlns="http://www.w3.org/2000/svg"
 width="927.000000pt" height="562.000000pt" viewBox="150 -120 927.000000 562.000000"
 preserveAspectRatio="xMidYMid meet">

<g transform="translate(0.000000,562.000000) scale(0.130000,-0.130000)"
 stroke="none">
<path d="M3780 4253 c-297 -20 -538 -55 -830 -119 -199 -44 -1125 -265 -1361
-324 l-117 -30 -57 20 c-69 24 -203 50 -255 50 -44 0 -70 -21 -70 -55 0 -13
19 -62 42 -110 l42 -88 80 -38 c86 -41 180 -69 232 -69 95 0 48 -109 -70 -161
-43 -19 -60 -21 -135 -15 -47 4 -117 12 -155 17 l-69 11 -33 -34 c-26 -27 -36
-48 -48 -110 -37 -183 -8 -378 83 -553 19 -38 34 -79 33 -92 -6 -46 133 -111
392 -182 82 -23 156 -41 164 -41 12 0 13 11 7 58 -11 86 -8 273 5 339 20 100
60 210 99 270 78 120 205 211 347 248 138 36 342 38 469 5 198 -53 348 -172
439 -349 82 -158 116 -320 119 -553 l2 -137 830 -5 c457 -2 1008 -9 1225 -15
1354 -36 1368 -37 1379 -25 5 5 12 56 15 114 14 227 57 405 133 554 37 73 64
108 132 176 97 97 182 145 317 181 109 30 331 32 419 6 176 -54 306 -179 382
-368 60 -148 98 -384 91 -563 l-3 -89 90 6 c116 7 337 52 347 71 4 7 24 17 45
21 106 20 141 57 85 90 -24 14 -27 22 -24 49 3 17 11 35 17 41 22 18 29 95 30
327 0 216 -1 228 -20 243 -227 179 -595 326 -1087 435 -343 76 -896 153 -1263
175 -55 4 -116 11 -135 17 -57 18 -290 119 -576 251 -375 173 -514 222 -793
281 -288 61 -698 90 -991 69z m685 -138 c304 -46 647 -166 1043 -364 145 -73
332 -187 348 -213 4 -5 0 -14 -7 -19 -27 -17 -395 -10 -569 11 -91 11 -556 44
-1035 75 -839 53 -877 56 -1072 92 -112 20 -206 39 -211 42 -19 15 -152 173
-152 182 0 24 59 61 134 85 180 56 439 86 1036 117 172 9 394 6 485 -8z m-299
-689 c15 -12 17 -18 8 -33 -10 -16 -28 -18 -170 -18 -145 0 -159 2 -162 18 -8
41 13 47 162 47 108 0 147 -3 162 -14z m3094 -12 c218 -27 530 -94 665 -145
33 -12 57 -28 66 -45 7 -15 48 -59 90 -99 89 -82 202 -146 294 -165 82 -17
159 -46 180 -70 17 -18 16 -19 -6 -24 -13 -3 -64 -7 -114 -9 -75 -3 -105 -9
-181 -40 -62 -25 -107 -37 -140 -37 l-49 0 -39 77 c-80 155 -191 265 -341 338
-311 151 -669 76 -923 -194 l-54 -56 46 61 c100 135 250 241 396 280 79 21
240 23 325 5 33 -7 123 -33 200 -58 96 -31 159 -46 200 -47 93 -2 80 21 -35
62 -211 75 -451 129 -770 172 l-145 19 105 -5 c58 -3 161 -12 230 -20z m-4609
-128 c52 -13 135 -41 184 -63 l90 -38 37 37 c27 27 57 43 110 60 70 22 86 23
398 22 308 -1 874 -22 1705 -64 353 -18 359 -18 135 -14 -129 3 -390 9 -580
14 -190 5 -565 13 -834 17 l-488 6 25 -25 c61 -61 45 -128 -53 -231 -66 -70
-215 -187 -238 -187 -7 0 -24 24 -38 53 -110 219 -333 387 -565 426 -46 7 -49
9 -18 10 20 0 79 -10 130 -23z m3779 -26 c141 -11 247 -27 255 -40 7 -12 -78
-86 -126 -111 -57 -29 -230 -42 -384 -29 -130 10 -181 27 -190 63 -6 24 14 87
36 114 14 16 211 18 409 3z m-5266 -46 c206 -72 416 -112 533 -101 l62 6 -36
-47 c-48 -63 -90 -154 -104 -224 -7 -33 -17 -58 -24 -58 -20 0 -85 48 -146
109 -93 93 -216 149 -394 178 l-50 8 0 55 c0 69 21 124 44 115 9 -4 61 -22
115 -41z m7062 -39 c122 -35 243 -96 306 -155 42 -39 49 -49 33 -50 -36 0
-166 40 -242 75 -67 31 -217 127 -229 146 -9 16 42 9 132 -16z m-4455 -324
c63 -130 127 -198 245 -259 155 -80 160 -80 969 -108 396 -13 761 -23 810 -22
l90 3 12 60 c11 51 30 336 34 500 l1 50 10 -40 c10 -41 4 -418 -8 -547 l-7
-68 -98 0 c-131 0 -763 27 -1079 45 -494 30 -731 59 -817 101 -110 53 -207
212 -263 427 -41 161 -38 181 11 62 22 -54 63 -146 90 -204z m464 -471 c910
-28 1836 -61 1965 -71 213 -15 336 -42 300 -64 -6 -4 -745 8 -1642 26 -1650
34 -1698 36 -1648 68 21 14 181 42 290 51 97 8 175 7 735 -10z"/>
<path d="M3970 4090 c-455 -17 -848 -72 -980 -138 -72 -36 -78 -67 -24 -130
58 -69 54 -67 369 -112 65 -9 423 -40 466 -40 18 0 18 1 -1 53 -11 28 -38 88
-60 132 -22 44 -40 88 -40 97 0 53 456 87 714 53 227 -30 473 -106 603 -186
l32 -20 -19 -32 c-29 -46 -28 -139 1 -166 27 -25 93 -36 168 -28 75 8 91 15
102 44 36 95 -34 164 -182 180 -51 5 -58 8 -39 15 31 12 107 -5 171 -37 58
-30 85 -76 74 -131 -5 -28 -2 -36 19 -49 33 -22 124 -34 289 -37 117 -3 135
-2 120 10 -38 27 -454 231 -593 290 -507 214 -691 250 -1190 232z m-505 -230
c14 -27 25 -66 25 -86 l0 -37 -47 7 c-108 15 -212 65 -200 99 3 10 155 66 184
67 7 0 24 -22 38 -50z"/>
<path d="M4874 3685 c-7 -19 -14 -42 -14 -51 0 -16 -14 -17 -167 -11 -93 4
-283 16 -423 27 -140 11 -268 19 -285 19 -41 -2 116 -24 305 -44 197 -21 640
-32 640 -17 0 6 -4 14 -10 17 -13 8 -13 51 0 76 9 16 7 19 -10 19 -15 0 -26
-11 -36 -35z"/>
<path d="M3903 3673 c9 -2 25 -2 35 0 9 3 1 5 -18 5 -19 0 -27 -2 -17 -5z"/>
<path d="M6044 3195 c-13 -32 6 -35 270 -35 264 0 292 4 279 36 -8 21 -541 21
-549 -1z"/>
<path d="M2195 3172 c-101 -30 -184 -81 -266 -162 -129 -129 -182 -255 -183
-435 0 -184 54 -316 184 -445 121 -122 263 -180 440 -180 172 0 310 58 436
184 134 134 191 284 181 471 -14 252 -166 459 -405 552 -90 35 -293 43 -387
15z m308 -118 c82 -23 165 -74 227 -140 190 -203 186 -497 -9 -694 -137 -138
-328 -185 -507 -125 -41 14 -87 33 -102 42 -184 116 -281 329 -239 529 62 291
348 468 630 388z"/>
<path d="M2300 3044 c-59 -11 -130 -35 -130 -44 0 -5 9 -11 19 -15 43 -13 112
-139 146 -267 l18 -68 -24 -19 c-24 -20 -24 -20 -69 6 -119 69 -223 168 -235
224 -7 29 -8 29 -25 14 -29 -26 -87 -145 -99 -203 -11 -52 -15 -162 -7 -162 3
0 21 10 41 22 55 32 138 48 252 48 l101 0 10 -29 c10 -29 9 -31 -51 -70 -107
-69 -195 -105 -258 -106 l-57 0 18 -35 c43 -84 142 -172 237 -209 l49 -19 -4
63 c-5 71 10 126 66 248 31 69 38 77 63 77 24 0 30 -7 47 -52 56 -149 71 -243
49 -305 l-15 -43 27 7 c50 12 106 34 146 57 42 25 134 116 153 152 10 19 9 21
-13 16 -55 -10 -185 56 -287 147 -42 37 -46 44 -35 62 32 51 306 0 376 -70 19
-19 19 -19 25 2 3 12 6 56 6 99 0 86 -23 172 -65 244 l-27 46 -18 -38 c-28
-63 -119 -138 -237 -198 l-52 -26 -25 24 -26 23 20 69 c36 133 96 241 147 268
l26 13 -55 21 c-56 21 -180 35 -228 26z"/>
<path d="M7221 3119 c-234 -41 -437 -231 -496 -464 -19 -75 -19 -221 0 -303
18 -76 65 -171 117 -237 191 -241 540 -305 807 -148 134 79 246 228 285 379
18 71 21 219 5 296 -42 207 -225 399 -439 462 -69 21 -208 28 -279 15z m266
-140 c211 -72 343 -254 343 -473 0 -145 -46 -254 -149 -357 -190 -189 -485
-198 -682 -21 -239 214 -223 589 32 777 135 99 304 127 456 74z"/>
<path d="M7250 2973 c-14 -2 -47 -11 -73 -20 l-48 -15 39 -33 c46 -40 92 -124
121 -221 26 -87 26 -103 4 -120 -27 -20 -34 -18 -114 34 -91 60 -160 127 -186
183 l-20 43 -36 -55 c-53 -79 -77 -157 -77 -249 l0 -77 62 31 c58 29 70 31
200 34 119 4 138 2 138 -11 0 -8 2 -22 5 -29 4 -10 -13 -27 -48 -50 -117 -78
-240 -125 -292 -112 -32 8 -31 -2 5 -59 42 -67 115 -133 184 -167 81 -41 84
-40 78 20 -5 56 29 177 76 270 23 47 32 55 58 58 31 3 31 2 63 -94 37 -110 49
-215 32 -265 -6 -18 -10 -33 -8 -35 9 -9 145 49 193 81 46 32 134 128 134 146
0 2 -18 5 -40 5 -22 1 -68 15 -102 31 -67 32 -208 138 -208 157 1 32 20 41 82
38 136 -7 246 -38 294 -83 31 -29 37 -13 37 90 1 101 -19 175 -64 246 l-32 50
-9 -32 c-12 -44 -119 -139 -215 -190 l-80 -43 -23 25 -24 26 18 67 c32 124 89
228 144 264 l26 17 -37 16 c-72 30 -177 41 -257 28z"/>
</g>
</svg>
