<?xml version="1.0" standalone="no"?>
<!DOCTYPE svg PUBLIC "-//W3C//DTD SVG 20010904//EN"
 "http://www.w3.org/TR/2001/REC-SVG-20010904/DTD/svg10.dtd">
<svg version="1.0" xmlns="http://www.w3.org/2000/svg"
 width="1021.000000pt" height="597.000000pt" viewBox="130 -120 1021.000000 597.000000"
 preserveAspectRatio="xMidYMid meet">

<g transform="translate(0.000000,597.000000) scale(0.134000,-0.134000)"
 stroke="none">
<path d="M2386 4650 c16 -34 112 -176 156 -232 45 -57 28 -61 -357 -78 -303
-14 -344 -35 -251 -129 l46 -47 -49 -82 c-75 -124 -148 -217 -247 -317 -67
-69 -98 -109 -125 -165 -63 -128 -74 -179 -72 -320 4 -171 -4 -198 -98 -337
-44 -65 -84 -134 -89 -153 -5 -19 -17 -99 -26 -177 -16 -132 -16 -143 -1 -167
14 -21 17 -52 17 -170 l0 -145 31 -16 c50 -26 173 -45 293 -45 l112 0 -4 123
c-7 213 50 378 168 492 114 108 265 158 480 157 219 0 361 -53 491 -183 134
-132 204 -315 216 -557 l6 -122 231 0 c256 0 2619 -26 3036 -34 l265 -5 -3 77
c-5 95 11 233 38 335 64 243 213 407 429 471 199 59 463 31 612 -65 74 -47
164 -149 203 -232 59 -123 80 -227 80 -409 1 -105 5 -158 12 -158 5 0 20 -13
32 -30 63 -84 278 -56 341 45 24 40 32 44 126 75 55 17 106 39 113 48 6 9 12
33 12 54 l0 39 -31 -16 c-41 -22 -199 -41 -239 -29 l-30 9 20 41 c36 72 114
158 198 218 l82 58 0 62 c0 110 -56 265 -103 287 -17 8 -22 19 -23 52 -3 137
-189 301 -498 439 -234 105 -658 230 -841 248 -173 16 -343 84 -859 342 -504
252 -783 377 -941 422 -431 122 -1216 147 -2335 73 -96 -7 -227 -11 -290 -9
l-115 4 -100 124 c-151 189 -139 175 -119 134z m1949 -290 c558 -28 969 -117
1314 -282 57 -27 101 -51 99 -54 -3 -2 -38 11 -79 30 -159 73 -409 148 -624
186 -210 38 -377 50 -700 50 -526 0 -1052 -39 -1837 -136 l-287 -35 -71 25
c-67 23 -147 72 -136 83 2 3 26 -2 53 -11 76 -25 181 -36 248 -27 33 5 125 21
205 35 625 111 1304 161 1815 136z m-165 -404 c0 -151 -3 -277 -7 -279 -5 -2
-185 4 -401 13 -269 12 -397 21 -405 29 -19 19 -16 365 4 416 29 72 37 74 284
84 121 4 289 9 373 9 l152 2 0 -274z m795 234 c230 -39 551 -136 780 -236 133
-58 189 -106 200 -172 4 -24 5 -46 2 -49 -3 -2 -36 3 -74 12 -55 13 -77 15
-110 6 -67 -18 -123 -99 -123 -178 0 -15 -6 -23 -17 -23 -36 1 -1005 89 -1008
92 -2 3 -95 549 -95 561 0 23 286 14 445 -13z m-2205 -99 c14 -4 26 -15 28
-26 3 -24 -121 -306 -141 -319 -29 -19 -85 7 -205 92 -118 85 -222 175 -222
193 0 5 10 11 23 14 23 5 269 42 322 48 52 7 169 5 195 -2z m-906 -327 c-33
-74 -36 -146 -9 -173 11 -11 70 -36 131 -55 61 -20 119 -42 129 -50 27 -19 12
-55 -38 -93 -23 -17 -116 -95 -207 -172 l-165 -140 -82 -1 c-89 0 -92 3 -69
49 15 27 39 172 51 306 9 95 42 163 117 242 55 57 153 143 163 143 2 0 -7 -25
-21 -56z m4696 -197 c318 -204 332 -214 313 -225 -6 -4 -114 -1 -240 8 -248
16 -248 17 -315 87 -36 37 -51 75 -92 232 l-35 132 37 -23 c20 -12 170 -107
332 -211z m-487 83 c32 -10 73 -29 91 -43 60 -46 72 -122 24 -148 -27 -14
-130 -16 -250 -5 l-88 8 0 51 c0 73 16 123 47 147 30 24 74 21 176 -10z
m-2133 -41 c283 -14 693 -44 1090 -79 341 -31 390 -37 332 -39 -30 -1 -728 42
-848 53 l-51 4 5 -203 c5 -203 -7 -417 -33 -605 l-13 -95 -1 185 c-1 102 -6
239 -11 305 -13 147 -49 398 -58 407 -5 5 -815 53 -1182 70 -19 1 -1 5 40 9
89 8 442 2 730 -12z m1497 -125 c-3 -3 -12 -4 -19 -1 -8 3 -5 6 6 6 11 1 17
-2 13 -5z m-2229 -122 c7 -49 -7 -52 -204 -52 -153 0 -185 3 -198 16 -9 8 -16
21 -16 28 0 33 23 36 220 34 l195 -3 3 -23z m4711 -93 c132 -31 273 -103 389
-198 44 -37 52 -51 27 -51 -36 0 -8 -66 56 -135 l29 -31 -198 64 c-108 36
-219 76 -247 90 -166 85 -355 225 -355 264 0 9 10 19 23 22 40 8 191 -5 276
-25z m-2951 9 c18 -18 14 -46 -7 -58 -12 -6 -99 -10 -213 -10 -199 0 -218 4
-218 40 0 37 19 40 225 40 143 0 204 -3 213 -12z m1562 -93 c25 -71 35 -184
22 -240 l-9 -40 -7 65 c-8 69 -33 227 -43 270 -11 46 15 8 37 -55z m-3905 -99
c131 -36 286 -127 370 -217 l40 -42 -52 36 c-73 53 -225 122 -318 146 -388 97
-678 24 -940 -234 -45 -44 -94 -99 -110 -123 -28 -42 -30 -43 -69 -37 -92 15
-167 69 -186 134 -5 18 -6 31 -2 29 61 -32 111 -49 159 -54 l59 -6 73 76 c148
152 326 248 546 296 112 24 335 22 430 -4z m4832 -27 c222 -24 394 -109 553
-270 68 -69 82 -78 124 -84 89 -14 175 -1 263 39 44 20 85 36 90 36 6 0 22 -9
37 -21 43 -34 35 -90 -27 -171 l-36 -46 41 -28 40 -28 -23 -16 c-13 -8 -43
-32 -65 -53 l-42 -38 -71 16 -71 17 0 34 c0 39 -7 42 -43 14 -38 -30 -73 -18
-108 39 -83 136 -109 171 -172 238 -84 88 -138 129 -235 177 -261 132 -602
107 -967 -71 l-90 -43 41 37 c122 112 349 202 556 222 46 5 89 9 96 10 7 0 56
-4 109 -10z m-5896 -507 c15 -13 20 -25 16 -36 -15 -38 -201 -92 -231 -67 -21
18 -20 33 5 65 38 49 167 72 210 38z m1696 -330 c26 -11 75 -25 108 -31 53 -9
1273 -37 2510 -57 364 -6 417 -5 474 10 75 19 127 55 147 100 l13 31 1 -45 c0
-61 -27 -102 -86 -131 -79 -38 13 -38 -1884 6 -925 22 -1037 25 -1124 36 -139
18 -236 67 -236 121 l0 22 15 -20 c8 -12 36 -30 62 -42z"/>
<path d="M5890 3600 c-8 -15 2 -18 97 -29 58 -7 107 -11 108 -9 2 2 -41 15
-96 29 -92 25 -100 25 -109 9z"/>
<path d="M7700 3232 c0 -24 68 -73 208 -151 50 -28 95 -51 98 -51 3 0 -7 15
-24 34 -16 18 -45 59 -63 90 -38 62 -59 72 -161 83 -38 4 -58 2 -58 -5z"/>
<path d="M2221 2734 c-191 -51 -351 -208 -407 -399 -23 -80 -23 -230 0 -310
58 -196 215 -348 411 -400 76 -19 214 -19 289 0 195 51 360 216 411 411 19 75
19 213 0 288 -52 198 -220 365 -416 411 -80 18 -217 18 -288 -1z m332 -137
c121 -60 195 -144 238 -269 17 -51 20 -80 17 -158 -3 -81 -8 -105 -35 -163
-38 -80 -122 -172 -191 -210 -136 -74 -308 -74 -444 0 -69 37 -153 130 -191
210 -30 64 -32 74 -32 183 0 111 1 117 36 190 56 117 146 197 274 243 38 13
74 17 151 15 93 -3 106 -6 177 -41z"/>
<path d="M2225 2582 c-109 -40 -196 -120 -243 -220 -24 -51 -27 -68 -27 -172
0 -107 2 -119 29 -175 40 -81 119 -158 203 -198 63 -30 76 -32 173 -32 97 0
110 2 170 31 91 43 150 100 196 186 39 73 39 73 39 189 0 111 -1 117 -34 183
-41 80 -115 152 -199 192 -76 37 -229 45 -307 16z m211 -48 c19 -9 34 -18 34
-20 0 -10 -105 -214 -111 -214 -8 0 -132 211 -126 216 2 2 21 10 43 18 53 20
119 19 160 0z m216 -131 c42 -43 68 -98 68 -143 l0 -30 -126 0 -126 0 23 38
c61 99 111 172 117 172 5 0 24 -17 44 -37z m-463 -76 c41 -48 72 -89 70 -91
-2 -3 -59 -11 -127 -18 l-122 -14 0 35 c0 20 5 53 11 74 11 42 66 110 83 104
6 -2 44 -43 85 -90z m219 -100 c15 -12 16 -59 0 -75 -37 -37 -113 12 -89 57
21 38 54 45 89 18z m-147 -129 c-11 -18 -42 -68 -68 -110 -27 -43 -51 -78 -54
-78 -3 0 -25 19 -48 42 -42 43 -73 115 -63 150 4 18 5 18 205 26 l49 2 -21
-32z m431 -13 c-6 -66 -46 -136 -92 -160 l-28 -15 -52 81 c-28 45 -58 92 -67
105 l-16 25 129 -3 129 -3 -3 -30z m-278 -115 c31 -55 57 -105 59 -111 3 -16
-61 -37 -116 -38 -45 -1 -117 20 -117 35 0 8 110 214 115 214 2 0 28 -45 59
-100z"/>
<path d="M7150 2734 c-152 -40 -303 -161 -368 -295 -112 -231 -71 -480 108
-660 116 -117 240 -169 405 -169 165 0 289 52 405 169 228 230 228 571 0 802
-82 83 -177 137 -278 158 -73 15 -206 13 -272 -5z m269 -113 c82 -25 138 -60
192 -118 138 -148 167 -336 78 -520 -31 -65 -131 -162 -201 -196 -247 -118
-536 0 -630 258 -27 77 -30 196 -5 277 40 131 163 257 290 297 82 26 196 27
276 2z"/>
<path d="M7163 2586 c-196 -64 -318 -264 -283 -462 26 -155 129 -273 281 -324
53 -18 79 -21 149 -17 137 8 246 68 318 177 140 209 68 487 -155 597 -69 34
-84 38 -172 40 -61 2 -111 -2 -138 -11z m197 -51 c17 -9 30 -21 29 -28 0 -6
-23 -58 -52 -114 l-52 -102 -64 110 c-35 60 -61 112 -58 115 3 3 23 12 44 19
51 19 117 18 153 0z m228 -140 c40 -45 69 -121 59 -150 -5 -12 -28 -15 -128
-15 -66 0 -119 4 -117 8 15 36 126 202 135 202 6 0 29 -20 51 -45z m-473 -66
c42 -50 75 -92 73 -93 -6 -6 -183 -26 -222 -26 l-37 0 7 48 c3 26 12 62 20 79
13 34 56 83 72 83 5 0 44 -41 87 -91z m229 -122 c19 -53 -50 -90 -89 -47 -36
39 8 99 60 80 11 -4 24 -19 29 -33z m-144 -83 c0 -9 -109 -184 -125 -202 -28
-31 -125 102 -125 170 0 30 -19 27 203 36 26 1 47 -1 47 -4z m420 -26 c0 -51
-24 -105 -65 -145 -23 -24 -46 -43 -51 -43 -8 0 -81 112 -122 187 l-13 23 126
0 c123 0 125 0 125 -22z m-273 -139 l62 -110 -27 -11 c-48 -20 -146 -22 -180
-4 -18 9 -32 19 -32 21 0 10 105 215 110 215 3 0 33 -50 67 -111z"/>
</g>
</svg>
