<svg version="1.1" id="Layer_1" xmlns="http://www.w3.org/2000/svg" xmlns:xlink="http://www.w3.org/1999/xlink" x="0px" y="0px"
	 width="100%" viewBox="190 40 400 380" enable-background="new 0 0 768 528" xml:space="preserve">
<path opacity="1.000000" stroke="none" 
	d="
M193.979309,307.834259 
	C197.149017,308.809021 199.959167,309.003326 202.810165,308.993652 
	C238.142532,308.873779 273.474976,308.768005 308.807373,308.665131 
	C314.590454,308.648285 320.373627,308.662750 326.217773,307.981659 
	C323.560181,305.511505 320.319519,305.077881 317.267639,304.370941 
	C313.782288,303.563690 312.802368,301.596832 312.962128,298.263275 
	C314.126709,273.967194 314.914032,249.658249 314.599152,225.330460 
	C314.452606,214.005020 313.872101,202.684570 313.768951,191.359329 
	C313.600281,172.841263 315.837738,154.484436 317.848419,136.117142 
	C318.154633,133.319656 319.484985,131.955353 322.370880,131.972977 
	C355.014465,132.172424 387.635956,129.336441 420.302917,131.468567 
	C429.600342,132.075409 438.913727,132.307831 448.189056,133.374008 
	C462.399689,135.007492 475.742371,138.454163 485.765259,150.471680 
	C487.175049,147.587357 486.721924,145.100113 486.723022,142.745285 
	C486.735504,115.912918 486.680450,89.080528 486.652191,62.248138 
	C486.649567,59.748989 486.489716,57.223206 486.791870,54.757469 
	C487.150818,51.828411 488.922272,50.407791 491.639465,52.293106 
	C496.676697,55.788189 500.725037,59.087765 500.573090,66.850822 
	C499.953430,98.503654 500.069611,130.180618 500.514404,161.840256 
	C500.722534,176.652802 498.503265,173.604309 512.751160,174.469971 
	C524.878540,175.206818 536.983826,176.242096 549.109924,176.978043 
	C555.543213,177.368484 561.182190,180.598526 567.071655,182.850952 
	C578.737854,187.312653 590.375732,191.849030 601.995300,196.430771 
	C603.975952,197.211792 605.807129,198.372040 607.922241,199.468460 
	C606.512512,202.405106 603.866943,202.645218 601.634644,203.406143 
	C598.959351,204.318085 596.208130,205.008560 593.485291,205.779175 
	C590.988708,206.485779 589.796997,207.932770 590.687683,210.597931 
	C593.379883,218.653381 596.077271,226.707092 598.761414,234.765259 
	C599.804321,237.896317 602.392883,237.691528 604.925598,237.700958 
	C629.424744,237.792191 653.930237,237.587952 678.421082,238.091522 
	C698.579651,238.505981 718.733826,238.581512 738.891663,238.686630 
	C745.942017,238.723389 749.304077,242.132553 749.256042,249.167175 
	C749.182068,260.000549 749.306641,270.824402 750.080383,281.635071 
	C750.245728,283.945343 749.980103,286.242676 753.073853,287.181641 
	C754.889038,287.732605 754.827454,289.895508 754.841797,291.522797 
	C754.879822,295.843903 754.790710,300.167542 754.665283,304.487640 
	C754.637085,305.458862 754.522217,306.610382 753.992554,307.355743 
	C749.079468,314.269592 748.312317,324.382416 754.838501,329.195770 
	C760.506531,333.376221 758.880066,337.878815 759.209534,342.533356 
	C759.726624,349.837585 759.618164,357.184509 760.054871,364.496613 
	C760.309082,368.753693 758.899109,371.325592 754.476807,370.105560 
	C744.348022,367.311127 739.301147,371.388794 733.949585,380.326965 
	C723.975037,396.986420 707.620422,404.445343 688.311829,401.729156 
	C667.616150,398.817841 653.904846,386.462311 648.345215,366.104523 
	C647.037842,361.317139 644.919373,360.151520 640.413208,360.204651 
	C623.582397,360.403168 606.747803,360.297668 589.914673,360.273468 
	C587.124023,360.269470 584.409973,360.446564 581.715332,358.867218 
	C579.269287,357.433533 577.033569,358.477386 576.737122,361.582153 
	C576.437256,364.722870 576.310547,367.909180 576.471741,371.056885 
	C576.644531,374.430664 575.449585,375.961700 571.958679,375.951691 
	C551.625916,375.893372 531.292786,375.891632 510.960114,375.957916 
	C507.336029,375.969727 505.749237,374.396637 505.911560,370.842224 
	C505.979919,369.345245 505.829590,367.834778 505.950531,366.344391 
	C506.263916,362.482452 505.460571,360.302277 500.690826,360.081268 
	C493.636444,359.754456 489.151062,354.615997 487.982147,346.858032 
	C487.735840,345.223389 487.818848,343.535828 487.793274,341.872009 
	C487.759613,339.683289 488.075378,337.322601 484.742767,337.314575 
	C481.473755,337.306702 481.043274,339.461639 480.974365,342.014343 
	C480.794678,348.672455 480.563629,355.329132 480.371429,361.986938 
	C480.057800,372.850616 475.097870,377.895599 464.274445,377.912659 
	C422.608307,377.978149 380.941895,377.909271 339.276062,378.041199 
	C334.979584,378.054779 332.477661,376.568939 330.920105,372.595184 
	C328.526703,366.488739 326.906311,360.259186 326.650116,353.696625 
	C326.317200,345.167145 326.031342,344.918335 317.281097,345.026886 
	C292.287964,345.337006 267.294647,345.637329 242.301208,345.922852 
	C234.363907,346.013519 232.250931,347.685883 231.727341,355.784821 
	C230.932877,368.073059 226.915604,378.879578 218.106018,387.634979 
	C206.043304,399.623535 191.608353,404.741974 174.803284,401.216949 
	C155.826004,397.236267 143.776443,385.379608 137.951370,367.021393 
	C137.550980,365.759552 137.250427,364.463440 136.794846,363.223175 
	C136.652222,362.834839 136.152985,362.577515 135.453568,361.917053 
	C128.817505,386.519318 113.662483,401.611145 87.869194,402.030853 
	C64.985359,402.403198 50.132401,389.427734 40.720985,368.694092 
	C40.260784,374.142944 39.370529,379.599457 39.466999,385.038452 
	C39.555206,390.011871 37.570023,391.220306 32.975639,391.220581 
	C18.642815,391.221466 18.732800,391.369934 18.611721,377.038513 
	C18.462542,359.380859 18.089540,341.725128 17.928951,324.067505 
	C17.872608,317.872253 18.308062,317.551178 24.514736,317.737793 
	C33.552830,318.009521 42.075485,314.295898 51.008526,314.216461 
	C61.087685,314.126801 69.964455,309.433289 79.550926,307.522552 
	C86.936829,306.050446 94.114136,306.722534 101.273819,308.707886 
	C107.092667,310.321411 107.519791,310.137207 108.317551,304.231750 
	C108.619415,301.997131 109.472404,301.062653 111.612648,300.660828 
	C132.413910,296.755341 153.294708,293.585724 174.539932,293.872894 
	C181.258331,293.963715 182.500290,295.325775 182.638199,301.069580 
	C182.698273,303.571869 181.687592,304.354828 179.431503,304.294098 
	C176.766403,304.222321 174.097809,304.161774 171.433517,304.221375 
	C169.636642,304.261597 167.245224,304.118713 167.681427,306.870148 
	C168.053558,309.217468 170.119217,308.578064 171.743179,308.201202 
	C178.978348,306.522278 186.235840,306.111633 193.979309,307.834259 
M320.956329,202.950943 
	C322.130554,213.718536 320.420715,224.403076 325.456268,235.254913 
	C330.254333,245.595016 334.942871,254.849487 344.935577,260.765259 
	C348.505463,262.878693 351.749298,265.550995 355.352173,267.598297 
	C359.322235,269.854218 363.907227,269.830139 367.906067,268.282715 
	C371.118591,267.039551 369.655487,263.227692 369.614380,260.588287 
	C369.324097,241.938904 371.391327,223.416428 372.477264,204.844940 
	C373.036072,195.288956 377.011780,191.582458 386.697601,191.204086 
	C393.851044,190.924637 401.031372,190.918045 408.185699,191.177383 
	C418.061249,191.535385 422.694946,196.158936 422.176086,205.992310 
	C421.104858,226.294754 424.636200,246.391800 424.400940,266.640045 
	C424.389526,267.624084 424.631042,268.617432 424.811279,269.596039 
	C425.253418,271.996643 427.245911,273.463531 429.105377,272.834320 
	C433.794678,271.247589 437.966827,273.418365 442.250824,274.089050 
	C448.927490,275.134308 455.114929,274.572357 461.233124,271.740601 
	C465.625732,269.707520 470.204285,268.050568 475.175781,268.341522 
	C477.732513,268.491150 478.555176,266.878510 478.474243,264.947021 
	C478.025604,254.243942 480.902405,243.794220 480.694641,233.102982 
	C480.448730,220.445847 480.433807,207.783051 480.443207,195.122803 
	C480.446472,190.707352 479.327148,185.496216 486.052856,184.532425 
	C486.134216,184.520782 486.132416,183.928818 486.161987,183.605179 
	C485.780701,182.472961 484.726166,182.385391 483.807281,182.012512 
	C477.599426,179.493469 471.615234,181.214447 465.305756,182.093430 
	C449.057343,184.356979 432.580780,183.400330 416.170868,184.963547 
	C389.160522,187.536545 361.907623,186.113571 334.756256,186.314468 
	C319.422272,186.427933 319.229492,186.640793 320.956329,202.950943 
M337.642609,321.301025 
	C333.447906,336.519867 341.136078,347.377136 356.804840,347.740448 
	C367.175842,347.980865 377.355255,347.899658 387.844147,345.509216 
	C398.807037,343.010681 410.534058,342.428650 422.090454,343.380951 
	C432.531128,344.241211 443.013611,345.509949 453.491669,344.601166 
	C459.235718,344.102966 465.741943,343.258789 467.864258,336.715088 
	C469.852844,330.583618 470.430634,324.057434 468.913666,317.502075 
	C468.051147,313.774841 466.108154,312.614807 462.356140,312.173401 
	C456.348206,311.466614 450.989868,314.269409 445.204132,314.356812 
	C431.886749,314.557953 418.570801,314.890533 405.252838,315.007782 
	C385.600830,315.180786 365.947296,315.299683 346.295074,315.235840 
	C342.095551,315.222198 339.141968,316.301361 337.642609,321.301025 
M332.659698,138.307510 
	C329.854523,138.802109 326.463989,137.016693 324.340118,140.143829 
	C320.432037,145.898041 322.424988,154.341995 328.529785,158.065109 
	C334.257019,161.557938 340.645325,162.726517 347.209442,162.657928 
	C370.029938,162.419479 392.848877,162.031006 415.668121,161.680527 
	C417.163116,161.657562 418.663239,161.537247 420.148102,161.356384 
	C431.739410,159.944489 443.370087,159.181900 455.036346,159.836411 
	C459.829559,160.105316 465.896179,159.411606 468.958038,162.561249 
	C473.807678,167.549973 481.269318,167.235092 485.507874,173.868988 
	C486.982666,168.093811 487.280884,163.465057 484.784149,159.562485 
	C478.703217,150.057495 470.170624,143.644577 458.858154,141.635635 
	C447.865479,139.683472 436.726166,138.416153 425.596680,138.311264 
	C394.939453,138.022354 364.277161,138.269623 332.659698,138.307510 
M618.002136,242.047028 
	C616.034424,242.167404 614.278809,242.525452 614.424622,245.118332 
	C614.542969,247.224197 615.994385,247.940094 617.752808,248.178101 
	C619.559937,248.422714 621.391479,248.613998 623.212219,248.612930 
	C643.329346,248.601135 663.446533,248.543167 683.563660,248.507019 
	C690.987793,248.493668 698.411926,248.504883 705.836060,248.504883 
	C705.823547,248.955521 705.810974,249.406158 705.798401,249.856796 
	C701.425476,250.900574 696.958069,250.972534 692.490295,251.288605 
	C671.484863,252.774673 650.363098,251.517807 629.402527,254.449600 
	C616.283081,256.284668 615.464355,256.907593 618.503662,270.086639 
	C618.564209,270.349182 618.951294,270.536438 619.368103,270.931244 
	C621.480957,269.825684 623.788147,270.457672 626.031372,270.828430 
	C637.688354,272.755096 649.234741,271.839264 660.737549,269.647491 
	C679.321289,266.106506 697.899597,264.074005 716.621277,268.876251 
	C720.046326,269.754761 723.348450,271.728180 727.379272,270.923065 
	C728.396973,263.795349 726.257629,256.899597 726.693970,249.953934 
	C726.912415,246.476166 725.280823,245.263260 721.912659,245.323013 
	C687.518433,245.933228 653.189880,244.414612 618.002136,242.047028 
M378.760712,198.304489 
	C377.210144,200.184860 376.558960,202.433289 376.472260,204.781738 
	C375.946869,219.014801 376.538147,233.200272 378.462402,247.322342 
	C378.685791,248.961685 379.622131,249.833267 380.998260,250.714600 
	C391.100525,257.184448 402.313934,254.178696 413.111267,254.552383 
	C415.192780,254.624405 415.743530,252.633820 415.605286,250.885742 
	C414.406342,235.725693 418.088501,220.818787 417.892670,205.715805 
	C417.798096,198.421036 414.846008,195.384888 407.656158,195.322098 
	C400.835938,195.262543 394.013855,195.377594 387.194397,195.283890 
	C384.239624,195.243271 381.605408,195.894669 378.760712,198.304489 
M569.648010,228.955276 
	C567.008789,220.885132 564.429688,212.794632 561.707092,204.752701 
	C560.156555,200.172729 558.439087,199.151947 554.784119,199.925034 
	C562.191345,211.260620 563.103149,224.764145 567.491333,236.834259 
	C565.018799,238.801117 562.943604,238.296432 561.009033,238.303879 
	C548.345154,238.352600 535.680908,238.326019 523.016785,238.328323 
	C512.145142,238.330292 512.145142,238.332825 510.376312,227.066147 
	C509.648529,238.102280 508.863953,248.032211 509.389435,257.963287 
	C509.830536,266.299866 511.708099,267.754089 519.988525,267.694427 
	C523.647644,267.668091 527.289917,267.473755 530.950378,267.148621 
	C541.549011,266.207123 552.180542,264.580536 562.820984,266.382019 
	C566.860413,267.065948 568.970154,266.180206 568.773071,261.773254 
	C568.736633,260.958130 568.908569,260.101898 569.142395,259.311371 
	C572.037598,249.522293 570.662842,239.635422 569.648010,228.955276 
M723.030640,347.859131 
	C723.449219,350.316254 723.861389,352.774506 724.288025,355.230255 
	C724.843689,358.428650 727.189697,359.017975 729.874329,358.913818 
	C732.495117,358.812164 735.399475,358.179382 735.462280,355.119446 
	C735.617737,347.550751 735.737976,339.746704 732.134460,332.864258 
	C721.394287,312.351013 685.828369,298.891418 663.930237,326.445099 
	C658.298035,333.531860 654.268066,341.143311 654.009094,350.381866 
	C653.883728,354.854004 657.237427,355.943481 660.561279,356.460663 
	C663.889832,356.978577 664.542969,354.401825 664.946045,351.706909 
	C666.278137,342.799225 671.019287,336.865265 678.761597,331.716309 
	C695.804321,320.382202 717.422791,332.301056 723.030640,347.859131 
M154.524994,354.694916 
	C154.021957,341.887360 162.383255,335.268860 172.166397,329.849518 
	C176.916367,327.218292 182.193222,326.379761 187.638565,327.297455 
	C200.616531,329.484589 210.637024,339.257019 213.384003,352.667572 
	C214.269852,356.992249 217.289658,356.955688 220.573196,356.963470 
	C224.268677,356.972198 224.852921,354.711761 224.849274,351.678833 
	C224.834747,339.622864 219.454193,329.142609 211.550888,321.371307 
	C196.243286,306.319366 163.414886,306.423828 150.855087,328.982941 
	C146.920975,336.049103 143.399490,343.048950 143.171799,351.342102 
	C143.084427,354.524628 143.798126,356.854553 147.082977,357.951447 
	C150.198288,358.991699 152.625351,358.362427 154.524994,354.694916 
M47.209217,351.138611 
	C47.446896,355.537445 50.438408,356.476044 54.080460,356.637421 
	C57.686642,356.797211 57.982754,354.102753 58.274414,351.619843 
	C59.934151,337.490112 70.039528,331.626587 81.900978,327.753967 
	C87.466896,325.936768 93.273842,326.592346 98.390396,329.402893 
	C107.951736,334.654877 116.110199,341.286011 117.284706,353.241699 
	C117.687294,357.339630 120.737221,357.325348 123.486382,357.336182 
	C126.270119,357.347168 128.633255,356.535431 128.776367,352.822998 
	C129.093719,344.591309 126.779243,336.732422 123.041130,329.911072 
	C117.806885,320.359558 108.577072,314.700714 97.986900,312.355652 
	C82.408058,308.905945 68.855354,312.224213 58.197407,325.229248 
	C52.077641,332.696655 47.854286,340.621124 47.209217,351.138611 
M554.412903,342.742126 
	C559.428711,342.946716 564.737610,343.701202 565.702209,336.512115 
	C565.751099,336.147278 566.323425,335.576813 566.663879,335.568237 
	C572.027832,335.432678 569.220398,331.396118 569.440552,329.197540 
	C569.735535,326.252167 567.088379,326.053864 564.849243,325.998077 
	C553.865967,325.724396 542.882080,325.475403 531.898560,325.212677 
	C529.741028,325.161072 527.465332,325.507416 525.503052,324.471619 
	C521.704163,322.466370 517.705444,323.199310 513.742249,323.271973 
	C512.109253,323.301941 510.575470,323.811157 510.515778,325.670593 
	C510.404053,329.151947 510.469330,332.647766 510.670807,336.125458 
	C510.737946,337.284485 511.631775,338.278656 512.921814,338.516571 
	C514.369934,338.783661 514.942749,337.764252 515.486145,336.655609 
	C515.850891,335.911469 515.292969,334.476807 517.512268,334.573944 
	C517.019897,342.213654 523.045776,342.115479 527.971436,342.415619 
	C536.435913,342.931305 544.947327,342.675598 554.412903,342.742126 
M739.987000,272.372314 
	C739.747131,267.733673 738.589966,263.122681 739.562012,258.447754 
	C739.755188,257.518585 739.490356,256.459290 740.583862,255.819046 
	C744.277832,253.656204 744.698120,247.606934 741.276367,245.235947 
	C739.031433,243.680359 736.480713,243.962769 734.058289,244.707092 
	C732.305481,245.245682 732.254517,246.939636 732.254578,248.462143 
	C732.255371,263.722687 732.666321,278.986816 731.343018,294.227386 
	C731.020996,297.936401 732.716675,301.682709 731.411194,305.672058 
	C719.279541,298.967773 706.698914,293.874390 692.606506,294.466766 
	C680.218323,294.987518 661.661682,301.949585 656.497559,310.139404 
	C686.177795,289.504913 713.928223,292.613953 739.605469,317.328613 
	C741.205566,316.315033 739.216370,314.828857 740.555725,314.025421 
	C742.847839,313.794891 743.410522,317.290222 745.769897,316.689362 
	C747.379944,311.024689 746.223694,307.389618 740.260681,304.854980 
	C734.936035,302.591736 733.976685,295.620361 738.416504,291.321167 
	C743.813965,286.094757 744.523804,280.303833 743.292542,273.547485 
	C742.123169,274.107849 740.778320,275.473938 739.987000,272.372314 
M586.492371,313.338104 
	C581.906006,322.794830 584.849304,328.658478 594.967773,329.443420 
	C600.910339,329.904449 606.914062,329.593842 612.890320,329.591980 
	C614.258057,329.591553 615.692017,329.257935 616.408569,328.054382 
	C617.734985,325.826569 619.805664,325.541840 621.999573,325.591339 
	C629.088257,325.751190 634.288696,322.467712 638.340881,316.828979 
	C637.730469,315.344757 636.405151,315.145844 635.083618,315.005493 
	C619.145508,313.312866 603.020996,315.888702 586.492371,313.338104 
M557.245056,225.014740 
	C553.772461,214.273651 552.417480,213.517166 541.186890,216.158478 
	C538.600586,216.766724 536.044983,217.504593 533.460144,218.119324 
	C528.353271,219.333878 523.287598,221.034317 517.741516,219.229446 
	C517.359985,221.358627 516.610229,222.985947 515.873901,224.635101 
	C513.303894,230.391312 515.676575,233.934097 521.799805,233.978714 
	C531.438843,234.048965 541.081787,233.987610 550.715515,234.254944 
	C557.996582,234.457016 559.676636,232.544998 557.245056,225.014740 
M496.024139,97.499954 
	C495.981384,86.675171 495.899689,75.850319 495.919678,65.025650 
	C495.925659,61.779346 495.287109,59.182022 491.268738,58.483650 
	C491.182037,59.835014 491.043304,60.978657 491.044739,62.122128 
	C491.093750,101.592224 491.155029,141.062302 491.222107,180.532379 
	C491.223816,181.529709 491.259949,182.532562 491.370117,183.522797 
	C491.520935,184.878494 492.322632,185.563873 493.704529,185.610962 
	C495.284149,185.664810 496.321228,184.973969 496.470062,183.391968 
	C496.625610,181.738297 496.616150,180.064713 496.604523,178.400360 
	C496.418671,151.766846 496.220886,125.133415 496.024139,97.499954 
M493.023254,272.391479 
	C491.945679,245.206573 493.131775,218.014496 493.912537,190.266800 
	C489.935944,191.145020 486.616699,190.478149 486.800598,195.230911 
	C487.799072,221.033524 487.413727,246.848053 487.266693,272.659668 
	C487.226868,279.651581 487.307343,286.647369 486.415649,293.608337 
	C486.057892,296.401459 487.384460,298.227905 490.161499,298.473175 
	C493.250732,298.746002 492.772552,296.159760 493.052002,294.278076 
	C494.087982,287.301605 493.015594,280.326599 493.023254,272.391479 
M605.132996,305.446838 
	C607.932373,304.984558 609.000122,303.170715 609.022583,300.508942 
	C609.171143,282.894409 608.313782,265.270233 609.543091,247.665680 
	C609.750061,244.701401 607.566895,243.602341 605.328491,242.845108 
	C603.286072,242.154175 600.990051,241.683456 599.177429,243.317383 
	C596.955566,245.320221 598.293884,255.930054 600.867676,257.856750 
	C597.074646,261.754089 596.692993,271.900360 600.145752,277.048798 
	C596.776245,282.038086 597.459412,287.526703 602.108887,291.646698 
	C596.336731,293.613647 598.261841,298.322510 598.560303,302.182648 
	C598.815002,305.477142 601.874878,305.328583 605.132996,305.446838 
M509.192474,184.250641 
	C510.505676,185.467667 512.107056,185.738419 513.820068,185.693069 
	C520.812378,185.507965 527.803040,185.804947 534.705444,186.828598 
	C543.655823,188.155960 553.035095,186.855316 561.517151,191.297119 
	C563.179749,192.167770 565.423584,192.133057 567.028931,190.411362 
	C562.232910,181.352264 512.837341,174.846146 504.635040,182.152725 
	C505.364166,183.934067 507.112518,183.492783 509.192474,184.250641 
M679.166260,371.356415 
	C686.708557,378.108643 695.549988,379.035309 704.148132,374.875031 
	C710.551880,371.776520 716.356384,366.906708 716.512756,358.090424 
	C715.467346,358.140381 714.843079,358.143188 714.224487,358.203918 
	C707.769592,358.838104 707.752808,358.849396 710.611023,364.444275 
	C711.662903,366.503265 710.590576,367.971313 709.302429,369.316071 
	C707.960693,370.716797 706.065552,371.937469 704.566528,370.161407 
	C702.339233,367.522736 700.364990,368.244263 697.890991,369.819061 
	C698.097473,371.978912 699.608521,375.053101 695.450928,375.168823 
	C691.500916,375.278839 690.889587,372.849701 691.971436,369.639587 
	C688.616516,368.686951 685.832092,365.992950 682.621399,369.481018 
	C681.405457,370.801941 679.795776,369.639709 678.870972,368.320251 
	C677.857666,366.874420 677.385925,365.562561 679.133484,364.012146 
	C681.508484,361.905090 680.789185,358.486023 677.985229,358.624023 
	C674.967468,358.772583 673.903076,356.732117 672.065613,354.808502 
	C672.187866,362.472260 673.493713,365.534027 679.166260,371.356415 
M203.514877,365.975861 
	C204.777084,363.703674 206.118210,361.455597 206.115799,358.671722 
	C205.288559,358.510010 204.813690,358.324097 204.345566,358.339691 
	C197.843781,358.556763 197.861023,358.557190 200.176727,364.789307 
	C200.908936,366.759888 200.213058,368.433807 198.656586,369.659332 
	C197.006958,370.958282 195.232529,371.831146 193.400604,369.801971 
	C191.215683,367.381805 189.085281,368.208069 187.798477,370.524597 
	C187.134720,371.719482 188.437561,374.246277 185.816330,374.136932 
	C183.780624,374.052002 182.126617,373.356903 180.979385,370.831635 
	C179.944595,368.553864 177.079819,366.279358 174.108871,369.207214 
	C172.059387,371.226990 170.474625,370.185486 168.967606,368.777740 
	C167.360001,367.276031 166.386520,365.398285 168.842270,363.863892 
	C170.703354,362.701019 170.025986,361.348907 169.574814,359.975433 
	C169.054276,358.390686 167.693939,358.256378 166.299805,358.433380 
	C165.033234,358.594177 163.599716,358.022919 162.402939,359.373413 
	C161.690826,362.724487 163.690216,365.266052 165.542297,367.765259 
	C175.205750,380.804932 194.600098,380.147400 203.514877,365.975861 
M109.484314,361.267487 
	C109.762428,356.361633 105.989937,358.530884 104.243301,358.773438 
	C101.566711,359.145172 101.528404,361.530640 102.982689,363.356049 
	C105.026512,365.921387 104.423897,368.021637 102.259117,369.846863 
	C100.408249,371.407501 98.507355,371.701630 96.665443,369.414368 
	C94.901367,367.223785 93.081955,369.134583 91.257675,369.707581 
	C90.939125,371.372589 93.135612,373.229309 90.756592,374.636536 
	C88.997032,375.677338 87.341148,375.679077 85.587700,374.649170 
	C83.368378,373.345703 84.627037,371.493408 84.845444,369.790863 
	C82.649429,368.844604 80.538445,367.934998 78.368568,367.000031 
	C77.939392,368.545197 78.427467,370.770142 75.953064,370.702179 
	C73.997589,370.648407 72.506218,369.520050 71.619995,367.759705 
	C70.750626,366.032806 70.844254,364.502625 72.891563,363.672729 
	C74.414078,363.055573 74.147079,361.984619 73.785141,360.791901 
	C73.358986,359.387573 72.590279,358.124237 71.033234,358.511627 
	C69.315613,358.939026 67.323257,357.729309 65.851807,359.361725 
	C67.077721,366.888611 74.936050,375.482880 81.895256,376.601929 
	C94.305489,378.597382 103.850540,374.093018 109.484314,361.267487 
M574.407166,228.424667 
	C580.155396,230.867676 586.046265,232.042191 592.477356,231.093033 
	C592.011230,226.544724 588.498657,224.426392 587.213867,220.998718 
	C585.452942,216.300400 581.402588,214.868652 575.690613,216.417114 
	C571.006287,217.686981 574.071838,221.346863 573.709473,223.919266 
	C573.531921,225.179550 573.889221,226.515152 574.407166,228.424667 
M580.664917,245.466827 
	C580.652954,242.979141 580.620667,240.491348 580.635193,238.003815 
	C580.647705,235.862320 579.820374,234.487747 577.506042,234.382278 
	C575.035889,234.269714 574.383240,235.817993 574.370972,237.884583 
	C574.339478,243.191177 573.978516,248.528107 574.425842,253.795471 
	C574.815552,258.383179 576.129150,262.892456 577.034546,267.436401 
	C577.463928,267.422089 577.893311,267.407745 578.322693,267.393433 
	C578.078979,260.252441 581.440796,253.639496 580.664917,245.466827 
M686.740234,350.077026 
	C685.737854,354.501068 689.083069,355.220520 691.969177,355.548035 
	C695.606140,355.960785 699.747681,357.083313 702.371887,353.150665 
	C702.876343,352.394562 702.585632,350.839813 702.214172,349.815887 
	C700.949402,346.329285 698.825073,343.955872 694.688965,343.674896 
	C690.282410,343.375549 688.543457,346.139130 686.740234,350.077026 
M176.653519,352.903503 
	C180.340652,355.708771 184.530777,354.998047 188.543747,354.261200 
	C191.582016,353.703278 192.455795,351.521942 191.065811,348.620056 
	C189.348022,345.033783 186.516159,343.420990 182.610367,344.068207 
	C178.079514,344.819000 176.396210,347.930267 176.653519,352.903503 
M150.882492,301.056976 
	C159.246918,300.562012 167.611343,300.067078 175.975769,299.572113 
	C175.935883,299.118469 175.895996,298.664825 175.856110,298.211182 
	C157.036652,298.436829 138.300018,299.525787 119.864952,303.758911 
	C119.919777,304.264435 119.974602,304.769989 120.029427,305.275513 
	C130.010986,303.897125 139.992554,302.518768 150.882492,301.056976 
M755.514282,350.939362 
	C755.267639,347.144318 755.054871,343.346649 754.758972,339.555450 
	C754.625793,337.849640 755.189636,335.357574 752.498901,335.408203 
	C749.365601,335.467194 750.064514,338.148926 750.435913,339.929352 
	C752.000061,347.426819 753.016968,354.923706 751.736267,362.574585 
	C751.496643,364.006317 751.666809,365.362030 753.491821,365.472778 
	C755.314880,365.583405 755.623535,364.211487 755.627991,362.798981 
	C755.639465,359.156891 755.595337,355.514648 755.514282,350.939362 
M80.409866,351.334412 
	C84.001244,354.858826 88.220978,354.169464 92.244301,352.662750 
	C94.887512,351.672882 95.278145,349.513916 93.449318,347.074341 
	C91.552254,344.543762 89.073158,343.741333 86.083138,344.106293 
	C82.262985,344.572601 81.163643,347.471252 80.409866,351.334412 
M491.780304,306.104950 
	C491.780304,314.462860 491.780304,322.820740 491.780304,331.178650 
	C492.260345,331.184753 492.740417,331.190887 493.220459,331.196991 
	C493.482147,327.040405 493.743805,322.883820 494.057648,317.898529 
	C496.770813,320.613556 495.612823,323.518707 496.776611,326.137756 
	C496.776611,319.397003 496.796326,313.117706 496.760773,306.838776 
	C496.753204,305.497284 496.577301,304.103973 494.968903,303.648804 
	C493.418762,303.210083 492.411682,303.868744 491.780304,306.104950 
M634.381958,348.785065 
	C634.615051,350.894684 633.559937,353.263855 636.261047,356.141968 
	C637.029114,346.641754 638.421204,338.280487 641.374695,330.260803 
	C637.997437,334.026123 636.307007,338.563477 634.381958,348.785065 
M749.793884,291.746826 
	C746.260071,290.942169 743.449158,291.803375 741.429382,295.272736 
	C743.614746,297.498932 746.026489,298.217407 748.718506,297.256500 
	C751.206421,296.368317 750.817322,294.275970 749.793884,291.746826 
M511.652802,204.742859 
	C512.657471,201.983887 515.137085,200.469574 517.231384,198.630112 
	C509.854431,200.532806 507.173615,210.957428 510.718018,222.786835 
	C511.607880,217.052429 510.058502,211.228973 511.652802,204.742859 
M576.673828,337.232452 
	C576.592346,337.880737 576.444458,338.528748 576.442078,339.177338 
	C576.435547,340.962006 576.867737,342.853302 579.059631,342.393616 
	C581.869141,341.804352 580.932007,339.263947 580.638000,337.499420 
	C580.203430,334.891296 578.742432,334.714417 576.673828,337.232452 
M586.566895,238.487274 
	C588.652039,238.756866 590.744629,239.109756 593.183228,238.042465 
	C591.391663,235.765793 589.078003,236.156219 587.107605,235.921478 
	C585.380432,235.715744 585.144592,236.764267 586.566895,238.487274 
z"/>
</svg>