<?xml version="1.0" standalone="no"?>
<!DOCTYPE svg PUBLIC "-//W3C//DTD SVG 20010904//EN"
 "http://www.w3.org/TR/2001/REC-SVG-20010904/DTD/svg10.dtd">
<svg version="1.0" xmlns="http://www.w3.org/2000/svg"
 width="1012.000000pt" height="552.000000pt" viewBox="160 -80 1012.000000 552.000000"
 preserveAspectRatio="xMidYMid meet">

<g transform="translate(0.000000,552.000000) scale(0.130000,-0.130000)"
 stroke="none">
<path d="M4215 3973 c-576 -35 -693 -51 -989 -140 -251 -74 -582 -204 -931
-363 -142 -65 -162 -71 -375 -115 -124 -26 -225 -47 -226 -48 -22 -36 -72
-339 -73 -450 -3 -141 -24 -206 -84 -254 -21 -18 -22 -23 -22 -221 l1 -204 54
-63 c65 -75 106 -96 258 -130 119 -26 398 -71 510 -81 l72 -7 0 59 c1 167 99
388 221 498 199 179 552 173 786 -13 135 -108 244 -326 276 -552 l12 -84 1190
-11 c655 -6 1416 -14 1693 -18 l502 -6 0 68 c0 131 65 326 150 452 159 235
420 324 688 234 111 -37 186 -90 262 -184 85 -105 134 -247 152 -443 l12 -127
66 6 c222 21 484 68 530 95 18 11 30 22 27 25 -3 3 -51 -4 -108 -14 -278 -53
-291 -41 -138 125 96 105 116 118 196 128 29 4 57 13 63 21 8 8 10 59 8 148
-3 118 -6 138 -24 163 -12 15 -24 49 -28 74 -9 61 -64 152 -125 210 -171 161
-731 324 -1432 418 l-144 19 -210 98 c-298 139 -674 328 -855 430 -85 48 -182
99 -215 114 -137 63 -440 117 -780 140 -133 9 -841 11 -970 3z m1070 -128
c376 -44 639 -117 912 -252 205 -101 459 -282 638 -454 l80 -77 -80 4 c-44 3
-420 16 -835 29 -415 14 -1202 41 -1749 60 -546 19 -1013 35 -1036 35 -41 0
-44 2 -64 43 -23 48 -27 111 -8 143 17 31 169 159 246 209 222 143 527 239
876 274 148 15 856 6 1020 -14z m-1906 -29 c7 -8 8 -17 3 -20 -5 -3 -258 -104
-562 -225 -531 -211 -554 -219 -584 -207 -28 12 -29 14 -11 22 156 64 1123
443 1131 443 6 1 17 -5 23 -13z m-1496 -716 l57 -32 -22 -37 c-12 -20 -35 -55
-50 -78 l-29 -43 -89 0 c-99 0 -121 5 -113 26 4 11 27 14 94 14 l89 0 26 52
26 52 -22 15 c-13 9 -56 42 -96 74 -97 78 -98 104 -1 39 39 -27 98 -64 130
-82z m5444 -81 c66 -46 113 -58 313 -85 176 -23 386 -59 290 -49 -25 2 -106 9
-180 15 -280 22 -315 27 -366 53 -52 27 -91 63 -118 112 -17 29 -17 29 0 7 9
-13 37 -37 61 -53z m-2217 -119 c29 -114 38 -363 19 -527 l-13 -118 -7 145
c-16 307 -30 546 -35 575 -4 21 -3 27 5 20 5 -6 20 -48 31 -95z m1876 -56 c25
-81 28 -104 28 -254 1 -134 -4 -186 -22 -280 -13 -63 -28 -121 -33 -130 -8
-12 -9 -11 -5 5 28 113 32 578 7 685 -31 126 -17 112 25 -26z m-3201 66 l0
-25 -166 -3 c-139 -2 -168 0 -179 13 -10 12 -10 18 0 30 11 13 40 15 179 13
l166 -3 0 -25z m1730 -36 c12 -12 13 -19 4 -30 -9 -11 -47 -14 -174 -14 -137
0 -165 3 -176 16 -11 14 -10 18 6 30 29 22 318 20 340 -2z m2502 0 c-3 -3 -12
-4 -19 -1 -8 3 -5 6 6 6 11 1 17 -2 13 -5z m-4412 -454 c120 -223 225 -414
234 -424 9 -10 34 -27 56 -37 44 -19 -37 -17 2105 -64 382 -9 709 -17 725 -19
17 -1 -590 -4 -1347 -4 -959 -2 -1392 1 -1428 9 -58 12 -136 62 -155 99 -48
91 -424 863 -417 855 5 -5 107 -192 227 -415z m3535 365 c19 -23 4 -45 -30
-45 -18 0 -33 6 -36 15 -8 19 13 45 36 45 10 0 23 -7 30 -15z m1570 -35 c32
-7 30 -8 -25 -9 -63 -2 -142 -14 -152 -24 -3 -4 30 -45 74 -93 l80 -86 79 -2
c98 -3 152 -25 61 -26 -36 0 -70 -6 -87 -17 -27 -16 -30 -15 -76 12 -51 30
-259 233 -249 243 20 21 214 22 295 2z m-700 -58 c199 -65 375 -248 450 -467
l17 -50 64 0 c35 0 145 4 244 8 130 6 177 5 169 -3 -19 -20 -127 -30 -317 -30
l-187 0 -40 86 c-132 285 -362 443 -646 444 -231 0 -427 -78 -561 -224 -53
-58 -54 -58 -25 -15 86 128 237 221 432 264 97 22 315 14 400 -13z m-4965 11
c-59 -8 -190 -45 -248 -69 -147 -62 -273 -173 -337 -297 -30 -57 -40 -68 -68
-73 -58 -11 -95 3 -135 51 -66 79 -109 97 -255 106 -198 13 -333 41 -399 84
-35 23 -28 36 10 17 26 -13 78 -18 272 -23 272 -8 346 -22 400 -79 49 -51 75
-43 162 50 42 44 103 97 137 118 122 77 276 121 421 120 39 -1 57 -3 40 -5z
m-1383 -478 c94 -23 354 -69 438 -78 19 -2 -13 -5 -71 -5 -180 -3 -446 32
-478 63 -12 12 -10 45 3 45 3 0 51 -11 108 -25z m85 -109 c138 -20 351 -36
469 -36 50 0 105 -3 122 -6 28 -6 30 -9 21 -31 -5 -13 -9 -43 -9 -65 l0 -41
-67 7 c-82 8 -210 34 -443 87 -169 39 -176 42 -215 80 -36 36 -38 39 -13 30
15 -6 76 -17 135 -25z m3718 -7 c945 -30 1293 -44 1330 -54 49 -14 152 -72
143 -81 -12 -11 -2240 27 -2735 47 -306 12 -357 18 -361 40 -6 34 155 87 268
89 41 0 651 -18 1355 -41z"/>
<path d="M4405 3830 c-457 -38 -848 -158 -1078 -331 -125 -95 -170 -210 -97
-249 14 -8 515 -28 1508 -60 818 -27 1613 -54 1767 -59 153 -6 281 -9 282 -7
6 6 -279 222 -395 300 -323 216 -688 338 -1177 392 -167 18 -654 26 -810 14z
m397 -39 c9 -8 67 -545 59 -552 -6 -5 -1171 18 -1177 23 -7 7 -23 373 -17 379
12 11 273 75 420 103 133 26 338 53 448 59 77 5 258 -3 267 -12z m448 -12
c222 -26 528 -104 701 -179 200 -86 386 -225 508 -379 l33 -41 -74 0 c-40 0
-314 9 -608 20 -294 11 -553 20 -576 20 l-40 0 -67 278 c-37 152 -67 282 -67
289 0 13 20 12 190 -8z"/>
<path d="M2935 2466 c-255 -48 -445 -279 -445 -541 0 -246 170 -468 405 -530
76 -19 214 -19 290 0 246 64 418 306 402 565 -21 331 -325 568 -652 506z m257
-125 c128 -49 230 -156 270 -285 30 -95 22 -220 -20 -309 -37 -80 -121 -172
-190 -210 -295 -160 -653 54 -653 391 0 201 131 370 331 428 65 19 192 12 262
-15z"/>
<path d="M2990 2343 c-19 -2 -56 -11 -82 -19 l-47 -15 39 -35 c45 -41 80 -110
108 -210 l19 -69 -22 -17 c-22 -17 -25 -16 -86 23 -84 53 -166 135 -180 177
l-11 34 -34 -48 c-19 -27 -43 -77 -54 -112 -29 -94 -25 -221 6 -171 20 33 179
62 280 52 44 -5 53 -9 56 -28 4 -19 -6 -30 -57 -64 -89 -58 -152 -83 -212 -85
-29 0 -53 -4 -53 -9 0 -18 51 -85 97 -129 48 -44 102 -77 150 -92 19 -6 21 -4
14 26 -11 47 11 142 53 232 33 72 37 77 63 74 25 -3 30 -11 56 -88 29 -86 39
-181 24 -233 -7 -26 -6 -27 20 -21 71 16 152 66 207 125 55 59 70 87 41 76
-25 -10 -111 22 -171 63 -98 67 -124 93 -117 118 4 18 12 22 47 22 109 -1 233
-37 283 -82 l21 -20 8 47 c11 80 -3 163 -42 245 l-36 75 -14 -31 c-19 -44
-110 -124 -191 -167 l-70 -37 -22 24 -22 24 30 91 c33 99 66 158 105 189 14
11 26 22 26 25 0 20 -161 48 -230 40z"/>
<path d="M7570 2454 c-241 -65 -413 -309 -397 -564 13 -205 126 -373 312 -461
367 -175 784 89 785 496 0 245 -171 469 -405 530 -74 19 -222 19 -295 -1z
m249 -99 c84 -20 150 -57 211 -118 90 -90 132 -193 131 -320 -2 -326 -350
-536 -641 -387 -69 35 -110 70 -157 134 -92 124 -110 301 -45 439 59 126 173
221 305 253 71 17 120 16 196 -1z"/>
<path d="M7592 2323 l-52 -16 39 -34 c45 -38 81 -107 110 -211 l19 -71 -24
-16 c-23 -15 -27 -14 -82 21 -75 47 -160 130 -179 174 l-15 35 -20 -25 c-32
-40 -65 -111 -77 -168 -13 -60 -15 -146 -3 -140 91 47 109 52 224 56 116 4
118 4 127 -19 12 -30 -13 -53 -123 -110 -56 -30 -95 -43 -137 -46 -32 -3 -59
-7 -59 -10 0 -12 57 -90 89 -121 37 -36 114 -83 156 -96 19 -5 20 -2 17 49 -4
60 13 121 60 223 27 56 33 63 56 60 24 -3 30 -13 56 -88 30 -88 40 -191 23
-239 -9 -22 -7 -23 25 -16 84 18 212 108 247 172 9 19 7 21 -31 27 -53 9 -139
54 -208 111 -63 52 -65 55 -48 78 12 16 22 17 106 7 102 -11 182 -38 218 -71
l22 -21 8 47 c12 81 -2 163 -42 244 l-36 73 -18 -38 c-10 -22 -30 -51 -46 -66
-28 -26 -191 -128 -203 -128 -3 1 -16 9 -29 20 l-22 19 29 93 c33 100 77 180
110 198 32 17 26 25 -30 43 -64 21 -186 21 -257 0z"/>
<path d="M8857 2075 c-20 -14 -67 -60 -103 -103 -59 -69 -64 -77 -44 -80 30
-5 181 27 206 43 23 15 44 75 44 129 0 34 -2 36 -33 36 -18 0 -49 -11 -70 -25z"/>
</g>
</svg>
